<?xml version="1.0" encoding="UTF-8"?>
<svg width="40px" height="40px" viewBox="0 0 40 40" version="1.1" xmlns="http://www.w3.org/2000/svg" xmlns:xlink="http://www.w3.org/1999/xlink">
    <title>attach-explainer</title>
    <defs>
        <linearGradient x1="88.2297655%" y1="0%" x2="11.7702345%" y2="100%" id="linearGradient-1">
            <stop stop-color="#32C5FF" offset="0%"></stop>
            <stop stop-color="#B620E0" offset="51.2583893%"></stop>
            <stop stop-color="#F7B500" offset="100%"></stop>
        </linearGradient>
    </defs>
    <g id="attach-explainer" stroke="none" stroke-width="1" fill="none" fill-rule="evenodd">
        <g id="attach" transform="translate(2.000000, 0.000000)" fill="url(#linearGradient-1)" fill-rule="nonzero">
            <path d="M31.4765714,21.1377143 L18.94,33.6945714 C15.5281389,36.7267158 10.3442109,36.5741152 7.11661926,33.3465236 C3.88902762,30.118932 3.73642702,24.9350039 6.76857143,21.5231429 L22.9971429,5.29457143 C25.0093008,3.38319828 28.1661278,3.38319828 30.1782857,5.29457143 C32.1426485,7.2852801 32.1426485,10.4850056 30.1782857,12.4757143 L16.1811429,26.4525714 C15.8042787,26.8584251 15.2395215,27.0323948 14.6996098,26.9089477 C14.1596981,26.7855006 13.7266573,26.3833914 13.5636098,25.8540906 C13.4005622,25.3247898 13.5322787,24.7487109 13.9091429,24.3428571 L24.3157143,13.9565714 C25.1111621,13.1611236 25.1111621,11.8714478 24.3157143,11.076 C23.5202664,10.2805522 22.2305907,10.2805522 21.4351429,11.076 L11.0285714,21.5028571 C9.9768175,22.5464543 9.38525777,23.9667804 9.38525777,25.4484286 C9.38525777,26.9300768 9.9768175,28.3504028 11.0285714,29.394 C13.2379884,31.4985624 16.7102973,31.4985624 18.9197143,29.394 L32.8965714,15.3968571 C36.2480821,11.8000813 36.1491895,6.19513881 32.6728825,2.71883182 C29.1965755,-0.757475175 23.591633,-0.856367844 19.9948571,2.49514286 L3.76628571,18.7237143 C-0.780224657,23.7592439 -0.55704496,31.4814922 4.27269618,36.24604 C9.10243731,41.0105878 16.8270055,41.1288061 21.8002857,36.5142857 L34.3571429,23.9777143 C34.8717074,23.4631498 35.0726677,22.7131556 34.884324,22.0102474 C34.6959804,21.3073392 34.1469465,20.7583054 33.4440383,20.5699617 C32.7411301,20.381618 31.991136,20.5825783 31.4765714,21.0971429 L31.4765714,21.1377143 Z" id="Path"></path>
        </g>
    </g>
</svg>