<svg viewBox="0 0 919 876" xmlns="http://www.w3.org/2000/svg" xmlns:xlink="http://www.w3.org/1999/xlink" id="el_lZIMlPe_D"><style>@-webkit-keyframes kf_el_Cgr_poGcWzL_an_qMTpkDzbn{70.59%{opacity: 0;}81.96%{opacity: 1;}0%{opacity: 0;}100%{opacity: 1;}}@keyframes kf_el_Cgr_poGcWzL_an_qMTpkDzbn{70.59%{opacity: 0;}81.96%{opacity: 1;}0%{opacity: 0;}100%{opacity: 1;}}@-webkit-keyframes kf_el_naKuD-0_Wt7_an_WrJq4rYB8{58.43%{opacity: 0;}60.78%{opacity: 1;}0%{opacity: 0;}100%{opacity: 1;}}@keyframes kf_el_naKuD-0_Wt7_an_WrJq4rYB8{58.43%{opacity: 0;}60.78%{opacity: 1;}0%{opacity: 0;}100%{opacity: 1;}}@-webkit-keyframes kf_el_UOo0uFviSSO_an_TFYG12eaP{47.06%{opacity: 1;}48.63%{opacity: 0;}0%{opacity: 1;}100%{opacity: 0;}}@keyframes kf_el_UOo0uFviSSO_an_TFYG12eaP{47.06%{opacity: 1;}48.63%{opacity: 0;}0%{opacity: 1;}100%{opacity: 0;}}@-webkit-keyframes kf_el_pfGsC4DK370_an_UJpXRkar3{41.18%{-webkit-transform: translate(0px, 0px) scale(1, 1) translate(0px, 0px);transform: translate(0px, 0px) scale(1, 1) translate(0px, 0px);}41.96%{-webkit-transform: translate(0px, 0px) scale(1.01, 1.01) translate(0px, 0px);transform: translate(0px, 0px) scale(1.01, 1.01) translate(0px, 0px);}42.75%{-webkit-transform: translate(0px, 0px) scale(1, 1) translate(0px, 0px);transform: translate(0px, 0px) scale(1, 1) translate(0px, 0px);}0%{-webkit-transform: translate(0px, 0px) scale(1, 1) translate(0px, 0px);transform: translate(0px, 0px) scale(1, 1) translate(0px, 0px);}100%{-webkit-transform: translate(0px, 0px) scale(1, 1) translate(0px, 0px);transform: translate(0px, 0px) scale(1, 1) translate(0px, 0px);}}@keyframes kf_el_pfGsC4DK370_an_UJpXRkar3{41.18%{-webkit-transform: translate(0px, 0px) scale(1, 1) translate(0px, 0px);transform: translate(0px, 0px) scale(1, 1) translate(0px, 0px);}41.96%{-webkit-transform: translate(0px, 0px) scale(1.01, 1.01) translate(0px, 0px);transform: translate(0px, 0px) scale(1.01, 1.01) translate(0px, 0px);}42.75%{-webkit-transform: translate(0px, 0px) scale(1, 1) translate(0px, 0px);transform: translate(0px, 0px) scale(1, 1) translate(0px, 0px);}0%{-webkit-transform: translate(0px, 0px) scale(1, 1) translate(0px, 0px);transform: translate(0px, 0px) scale(1, 1) translate(0px, 0px);}100%{-webkit-transform: translate(0px, 0px) scale(1, 1) translate(0px, 0px);transform: translate(0px, 0px) scale(1, 1) translate(0px, 0px);}}@-webkit-keyframes kf_el_QxEKC6BYI9a_an_x7mD4s1vN{15.69%{-webkit-transform: translate(0px, 0px) scale(1, 1) translate(0px, 0px);transform: translate(0px, 0px) scale(1, 1) translate(0px, 0px);}16.08%{-webkit-transform: translate(0px, 0px) scale(1.01, 1.01) translate(0px, 0px);transform: translate(0px, 0px) scale(1.01, 1.01) translate(0px, 0px);}16.47%{-webkit-transform: translate(0px, 0px) scale(1, 1) translate(0px, 0px);transform: translate(0px, 0px) scale(1, 1) translate(0px, 0px);}0%{-webkit-transform: translate(0px, 0px) scale(1, 1) translate(0px, 0px);transform: translate(0px, 0px) scale(1, 1) translate(0px, 0px);}100%{-webkit-transform: translate(0px, 0px) scale(1, 1) translate(0px, 0px);transform: translate(0px, 0px) scale(1, 1) translate(0px, 0px);}}@keyframes kf_el_QxEKC6BYI9a_an_x7mD4s1vN{15.69%{-webkit-transform: translate(0px, 0px) scale(1, 1) translate(0px, 0px);transform: translate(0px, 0px) scale(1, 1) translate(0px, 0px);}16.08%{-webkit-transform: translate(0px, 0px) scale(1.01, 1.01) translate(0px, 0px);transform: translate(0px, 0px) scale(1.01, 1.01) translate(0px, 0px);}16.47%{-webkit-transform: translate(0px, 0px) scale(1, 1) translate(0px, 0px);transform: translate(0px, 0px) scale(1, 1) translate(0px, 0px);}0%{-webkit-transform: translate(0px, 0px) scale(1, 1) translate(0px, 0px);transform: translate(0px, 0px) scale(1, 1) translate(0px, 0px);}100%{-webkit-transform: translate(0px, 0px) scale(1, 1) translate(0px, 0px);transform: translate(0px, 0px) scale(1, 1) translate(0px, 0px);}}@-webkit-keyframes kf_el_brnPIIZ-ie_an_emPRvM8Ee{0%{opacity: 0;}3.92%{opacity: 0;}5.88%{opacity: 1;}47.06%{opacity: 1;}48.63%{opacity: 0;}100%{opacity: 0;}}@keyframes kf_el_brnPIIZ-ie_an_emPRvM8Ee{0%{opacity: 0;}3.92%{opacity: 0;}5.88%{opacity: 1;}47.06%{opacity: 1;}48.63%{opacity: 0;}100%{opacity: 0;}}@-webkit-keyframes kf_el_W06tmx3xpRU_an_7FXgV-eU5{0%{opacity: 0;}17.65%{opacity: 0;}19.22%{opacity: 1;}47.06%{opacity: 1;}48.63%{opacity: 0;}100%{opacity: 0;}}@keyframes kf_el_W06tmx3xpRU_an_7FXgV-eU5{0%{opacity: 0;}17.65%{opacity: 0;}19.22%{opacity: 1;}47.06%{opacity: 1;}48.63%{opacity: 0;}100%{opacity: 0;}}@-webkit-keyframes kf_el_QxEKC6BYI9a_an_qN4hI1znV{0%{opacity: 0;}3.92%{opacity: 0;}5.88%{opacity: 1;}47.06%{opacity: 1;}48.63%{opacity: 0;}100%{opacity: 0;}}@keyframes kf_el_QxEKC6BYI9a_an_qN4hI1znV{0%{opacity: 0;}3.92%{opacity: 0;}5.88%{opacity: 1;}47.06%{opacity: 1;}48.63%{opacity: 0;}100%{opacity: 0;}}@-webkit-keyframes kf_el_Ijs8UZwP7qq_an_BTIuaqdwr{0%{opacity: 0;}17.65%{opacity: 0;}19.61%{opacity: 1;}47.06%{opacity: 1;}48.63%{opacity: 0;}100%{opacity: 0;}}@keyframes kf_el_Ijs8UZwP7qq_an_BTIuaqdwr{0%{opacity: 0;}17.65%{opacity: 0;}19.61%{opacity: 1;}47.06%{opacity: 1;}48.63%{opacity: 0;}100%{opacity: 0;}}@-webkit-keyframes kf_el_WmNm9VaBsqM_an_XTlvrLRoB{0%{opacity: 0;}19.22%{opacity: 0;}21.18%{opacity: 1;}47.06%{opacity: 1;}48.63%{opacity: 0;}100%{opacity: 0;}}@keyframes kf_el_WmNm9VaBsqM_an_XTlvrLRoB{0%{opacity: 0;}19.22%{opacity: 0;}21.18%{opacity: 1;}47.06%{opacity: 1;}48.63%{opacity: 0;}100%{opacity: 0;}}@-webkit-keyframes kf_el_4UI2cGrdX9X_an_DhXlboKNu{0%{opacity: 0;}52.16%{opacity: 0;}54.90%{opacity: 1;}94.90%{opacity: 1;}98.82%{opacity: 0;}100%{opacity: 0;}}@keyframes kf_el_4UI2cGrdX9X_an_DhXlboKNu{0%{opacity: 0;}52.16%{opacity: 0;}54.90%{opacity: 1;}94.90%{opacity: 1;}98.82%{opacity: 0;}100%{opacity: 0;}}@-webkit-keyframes kf_el_UOo0uFviSSO_an_P2_aG0U2g{0%{-webkit-transform: translate(4.6566128730773926e-8px, 0px) translate(-4.6566128730773926e-8px, 0px) translate(210px, 0px);transform: translate(4.6566128730773926e-8px, 0px) translate(-4.6566128730773926e-8px, 0px) translate(210px, 0px);}8.24%{-webkit-transform: translate(4.6566128730773926e-8px, 0px) translate(-4.6566128730773926e-8px, 0px) translate(210px, 0px);transform: translate(4.6566128730773926e-8px, 0px) translate(-4.6566128730773926e-8px, 0px) translate(210px, 0px);}11.76%{-webkit-transform: translate(4.6566128730773926e-8px, 0px) translate(-4.6566128730773926e-8px, 0px) translate(-90px, -60px);transform: translate(4.6566128730773926e-8px, 0px) translate(-4.6566128730773926e-8px, 0px) translate(-90px, -60px);}35.29%{-webkit-transform: translate(4.6566128730773926e-8px, 0px) translate(-4.6566128730773926e-8px, 0px) translate(-90px, -60px);transform: translate(4.6566128730773926e-8px, 0px) translate(-4.6566128730773926e-8px, 0px) translate(-90px, -60px);}37.25%{-webkit-transform: translate(4.6566128730773926e-8px, 0px) translate(-4.6566128730773926e-8px, 0px) translate(-100px, -170px);transform: translate(4.6566128730773926e-8px, 0px) translate(-4.6566128730773926e-8px, 0px) translate(-100px, -170px);}100%{-webkit-transform: translate(4.6566128730773926e-8px, 0px) translate(-4.6566128730773926e-8px, 0px) translate(-100px, -170px);transform: translate(4.6566128730773926e-8px, 0px) translate(-4.6566128730773926e-8px, 0px) translate(-100px, -170px);}}@keyframes kf_el_UOo0uFviSSO_an_P2_aG0U2g{0%{-webkit-transform: translate(4.6566128730773926e-8px, 0px) translate(-4.6566128730773926e-8px, 0px) translate(210px, 0px);transform: translate(4.6566128730773926e-8px, 0px) translate(-4.6566128730773926e-8px, 0px) translate(210px, 0px);}8.24%{-webkit-transform: translate(4.6566128730773926e-8px, 0px) translate(-4.6566128730773926e-8px, 0px) translate(210px, 0px);transform: translate(4.6566128730773926e-8px, 0px) translate(-4.6566128730773926e-8px, 0px) translate(210px, 0px);}11.76%{-webkit-transform: translate(4.6566128730773926e-8px, 0px) translate(-4.6566128730773926e-8px, 0px) translate(-90px, -60px);transform: translate(4.6566128730773926e-8px, 0px) translate(-4.6566128730773926e-8px, 0px) translate(-90px, -60px);}35.29%{-webkit-transform: translate(4.6566128730773926e-8px, 0px) translate(-4.6566128730773926e-8px, 0px) translate(-90px, -60px);transform: translate(4.6566128730773926e-8px, 0px) translate(-4.6566128730773926e-8px, 0px) translate(-90px, -60px);}37.25%{-webkit-transform: translate(4.6566128730773926e-8px, 0px) translate(-4.6566128730773926e-8px, 0px) translate(-100px, -170px);transform: translate(4.6566128730773926e-8px, 0px) translate(-4.6566128730773926e-8px, 0px) translate(-100px, -170px);}100%{-webkit-transform: translate(4.6566128730773926e-8px, 0px) translate(-4.6566128730773926e-8px, 0px) translate(-100px, -170px);transform: translate(4.6566128730773926e-8px, 0px) translate(-4.6566128730773926e-8px, 0px) translate(-100px, -170px);}}#el_lZIMlPe_D *{-webkit-animation-duration: 8.5s;animation-duration: 8.5s;-webkit-animation-iteration-count: infinite;animation-iteration-count: infinite;-webkit-animation-timing-function: cubic-bezier(0, 0, 1, 1);animation-timing-function: cubic-bezier(0, 0, 1, 1);}#el_KeT8Nll1fa{fill: none;}#el_brnPIIZ-ie{-webkit-transform: translate(227px, 173px);transform: translate(227px, 173px);-webkit-animation-fill-mode: backwards;animation-fill-mode: backwards;opacity: 0;-webkit-animation-name: kf_el_brnPIIZ-ie_an_emPRvM8Ee;animation-name: kf_el_brnPIIZ-ie_an_emPRvM8Ee;-webkit-animation-timing-function: cubic-bezier(0, 0, 1, 1);animation-timing-function: cubic-bezier(0, 0, 1, 1);}#el_h9KQ0EjiYx{fill: #000;}#el_HrOJ2h_A3X{fill: #fff;}#el_couZB4h7Mq{-webkit-transform: translate(153px, 93px);transform: translate(153px, 93px);}#el_g7u-WdfQVi{fill: #ba9164;}#el_qVOeT5PAiP{fill: #ba9164;}#el_Dv5HCqLJhf{fill: #e7c799;}#el_Klka9uFlrC{fill: #e7c799;}#el_GMwcV-dsQB{fill: #f5f5f5;}#el_ik4mx6ZcxT{fill: #673ab7;}#el__FuMBukgYV{fill: #e0e0e0;}#el_5-MhEz0PCK{fill: #e0e0e0;}#el_MNu8rE3l_7{fill: #e0e0e0;}#el_52XpTQ3uDN{fill: #e0e0e0;}#el_ug6K3lbG_lQ{fill: #e0e0e0;}#el_fqm5afEOAMQ{fill: #e0e0e0;}#el_ntNZ1xcYBe7{fill: #e0e0e0;}#el_uCfxY6pMRtf{fill: #e0e0e0;}#el_EK96VZRmQiG{fill: #e0e0e0;}#el_eYuklqAuKIa{fill: #e0e0e0;}#el_CB7bPpwLQhr{fill: #fff;}#el_Oehm95Z2FUE{fill: #673ab7;}#el_B-py-l3MloB{fill: #e0e0e0;}#el_X5KyWGaRw7D{fill: #3ad29f;opacity: .6;}#el_-o2VlfaSF1L{fill: #673ab7;}#el_BoQ4aMk5HVX{fill: #c49c72;}#el_mC0I7vO5yIC{fill: #d0ad84;}#el_LRgx0i_HUVJ{fill: #000;opacity: .1;}#el_AjyWr973ohC{fill: #000;opacity: .1;}#el_omiR5XINEQh{fill: #e7c799;}#el_5MdLHTBDRZ9{fill: #e7c799;}#el_yTIXnb3Hq-0{fill: #5a5a5a;}#el_RhhMxYidTaf{stroke: #dcdcdc;stroke-width: 6;-webkit-transform: translate(38px, 307px);transform: translate(38px, 307px);}#el_W06tmx3xpRU{fill: #fff;fill-opacity: .606318;-webkit-animation-fill-mode: backwards;animation-fill-mode: backwards;opacity: 0;-webkit-animation-name: kf_el_W06tmx3xpRU_an_7FXgV-eU5;animation-name: kf_el_W06tmx3xpRU_an_7FXgV-eU5;-webkit-animation-timing-function: cubic-bezier(0, 0, 1, 1);animation-timing-function: cubic-bezier(0, 0, 1, 1);}#el_QxEKC6BYI9a{-webkit-transform: translate(486px, 609px);transform: translate(486px, 609px);-webkit-animation-fill-mode: backwards;animation-fill-mode: backwards;opacity: 0;-webkit-animation-name: kf_el_QxEKC6BYI9a_an_qN4hI1znV;animation-name: kf_el_QxEKC6BYI9a_an_qN4hI1znV;-webkit-animation-timing-function: cubic-bezier(0, 0, 1, 1);animation-timing-function: cubic-bezier(0, 0, 1, 1);}#el_IBKwXPsPTx0{fill: #000;}#el_wY6WDTaPaET{fill: #673ab7;}#el_NwlaQrllg77{fill: #fff;}#el_7qcervHP-QH{-webkit-transform: translate(17px, 20px);transform: translate(17px, 20px);}#el_RrVSuiKK_j-{fill: #000;visibility: hidden;}#el_Ijs8UZwP7qq{stroke: #7ed321;stroke-width: 5;-webkit-animation-fill-mode: backwards;animation-fill-mode: backwards;opacity: 0;-webkit-animation-name: kf_el_Ijs8UZwP7qq_an_BTIuaqdwr;animation-name: kf_el_Ijs8UZwP7qq_an_BTIuaqdwr;-webkit-animation-timing-function: cubic-bezier(0, 0, 1, 1);animation-timing-function: cubic-bezier(0, 0, 1, 1);}#el_WmNm9VaBsqM{-webkit-transform: translate(235px, 446px);transform: translate(235px, 446px);-webkit-animation-fill-mode: backwards;animation-fill-mode: backwards;opacity: 0;-webkit-animation-name: kf_el_WmNm9VaBsqM_an_XTlvrLRoB;animation-name: kf_el_WmNm9VaBsqM_an_XTlvrLRoB;-webkit-animation-timing-function: cubic-bezier(0.42, 0, 0.58, 1);animation-timing-function: cubic-bezier(0.42, 0, 0.58, 1);}#el_12zGGptufy5{fill: #000;}#el_UBCISrlsltG{fill: #fff;}#el_qBvPPM84w3X{-webkit-transform: translate(419px, 6px);transform: translate(419px, 6px);}#el_iU9nhIgapwh{fill: #6e6e6e;}#el_T60GTKyZD7H{-webkit-transform: translate(21px, 62px);transform: translate(21px, 62px);}#el_znpS0qXbwST{fill: #000;}#el_lBmr2h2KmLm{fill: #7ed321;}#el_jqWllsw8smF{fill: #fff;}#el_pfGsC4DK370{-webkit-transform: translate(231px, 62px);transform: translate(231px, 62px);}#el_skvKNbJ7L7u{fill: #000;}#el_Zaaa2Igun_f{fill: #d0021b;}#el_WG86SSCXddO{fill: #fff;}#el_PvB-UB44hSc{fill: #3d3d3d;}#el_4UI2cGrdX9X{-webkit-transform: translate(168px, 288px);transform: translate(168px, 288px);-webkit-animation-fill-mode: backwards;animation-fill-mode: backwards;opacity: 0;-webkit-animation-name: kf_el_4UI2cGrdX9X_an_DhXlboKNu;animation-name: kf_el_4UI2cGrdX9X_an_DhXlboKNu;-webkit-animation-timing-function: cubic-bezier(0, 0, 1, 1);animation-timing-function: cubic-bezier(0, 0, 1, 1);}#el_HicK3INhnNS{fill: #000;}#el_3Z2YPOx1rnl{fill: #fff;}#el_naKuD-0_Wt7{-webkit-transform: translate(36px, 150px);transform: translate(36px, 150px);-webkit-animation-fill-mode: backwards;animation-fill-mode: backwards;opacity: 0;-webkit-animation-name: kf_el_naKuD-0_Wt7_an_WrJq4rYB8;animation-name: kf_el_naKuD-0_Wt7_an_WrJq4rYB8;-webkit-animation-timing-function: cubic-bezier(0, 0, 1, 1);animation-timing-function: cubic-bezier(0, 0, 1, 1);}#el_BlUrfSS48Yf{fill: #3d3d3d;}#el_9iCGJ1eesXn{fill: #7ed321;}#el_Cgr_poGcWzL{-webkit-transform: translate(291px, 150px);transform: translate(291px, 150px);-webkit-animation-fill-mode: backwards;animation-fill-mode: backwards;opacity: 0;-webkit-animation-name: kf_el_Cgr_poGcWzL_an_qMTpkDzbn;animation-name: kf_el_Cgr_poGcWzL_an_qMTpkDzbn;-webkit-animation-timing-function: cubic-bezier(0, 0, 1, 1);animation-timing-function: cubic-bezier(0, 0, 1, 1);}#el_RDLxMjuct4t{fill: #3d3d3d;}#el_GAjvuuQTo70{fill: #d0021b;}#el_Vvvy-_hjvOz{fill: #3d3d3d;}#el_uPY-EjHSWQd{fill: #bdbdbd;}#el_UOo0uFviSSO{fill: #000;stroke: #fff;-webkit-transform: translate(709px, 710px);transform: translate(709px, 710px);-webkit-animation-fill-mode: backwards;animation-fill-mode: backwards;opacity: 1;-webkit-animation-name: kf_el_UOo0uFviSSO_an_TFYG12eaP;animation-name: kf_el_UOo0uFviSSO_an_TFYG12eaP;-webkit-animation-timing-function: cubic-bezier(0.42, 0, 0.58, 1);animation-timing-function: cubic-bezier(0.42, 0, 0.58, 1);}#el_UOo0uFviSSO_an_P2_aG0U2g{-webkit-animation-fill-mode: backwards;animation-fill-mode: backwards;-webkit-transform: translate(4.6566128730773926e-8px, 0px) translate(-4.6566128730773926e-8px, 0px) translate(210px, 0px);transform: translate(4.6566128730773926e-8px, 0px) translate(-4.6566128730773926e-8px, 0px) translate(210px, 0px);-webkit-animation-name: kf_el_UOo0uFviSSO_an_P2_aG0U2g;animation-name: kf_el_UOo0uFviSSO_an_P2_aG0U2g;-webkit-animation-timing-function: cubic-bezier(0.42, 0, 0.58, 1);animation-timing-function: cubic-bezier(0.42, 0, 0.58, 1);}#el_QxEKC6BYI9a_an_x7mD4s1vN{-webkit-animation-fill-mode: backwards;animation-fill-mode: backwards;-webkit-transform: translate(0px, 0px) scale(1, 1) translate(0px, 0px);transform: translate(0px, 0px) scale(1, 1) translate(0px, 0px);-webkit-animation-name: kf_el_QxEKC6BYI9a_an_x7mD4s1vN;animation-name: kf_el_QxEKC6BYI9a_an_x7mD4s1vN;-webkit-animation-timing-function: cubic-bezier(0, 0, 1, 1);animation-timing-function: cubic-bezier(0, 0, 1, 1);}#el_pfGsC4DK370_an_UJpXRkar3{-webkit-animation-fill-mode: backwards;animation-fill-mode: backwards;-webkit-transform: translate(0px, 0px) scale(1, 1) translate(0px, 0px);transform: translate(0px, 0px) scale(1, 1) translate(0px, 0px);-webkit-animation-name: kf_el_pfGsC4DK370_an_UJpXRkar3;animation-name: kf_el_pfGsC4DK370_an_UJpXRkar3;-webkit-animation-timing-function: cubic-bezier(0.42, 0, 0.58, 1);animation-timing-function: cubic-bezier(0.42, 0, 0.58, 1);}</style><defs><rect id="a" height="530" rx="18" width="467"/><filter id="b" height="104.9%" width="105.6%" x="-2.8%" y="-2.1%"><feOffset dx="0" dy="2" in="SourceAlpha" result="shadowOffsetOuter1"/><feGaussianBlur in="shadowOffsetOuter1" result="shadowBlurOuter1" stdDeviation="4"/><feColorMatrix in="shadowBlurOuter1" type="matrix" values="0 0 0 0 0.616682611   0 0 0 0 0.616682611   0 0 0 0 0.616682611  0 0 0 0.5 0"/></filter><rect id="c" height="57" rx="3" width="171"/><filter id="d" height="173.7%" width="124.6%" x="-12.3%" y="-29.8%"><feOffset dx="0" dy="2" in="SourceAlpha" result="shadowOffsetOuter1"/><feGaussianBlur in="shadowOffsetOuter1" result="shadowBlurOuter1" stdDeviation="2.5"/><feColorMatrix in="shadowBlurOuter1" result="shadowMatrixOuter1" type="matrix" values="0 0 0 0 0   0 0 0 0 0   0 0 0 0 0  0 0 0 0.26 0"/><feOffset dx="0" dy="2" in="SourceAlpha" result="shadowOffsetOuter2"/><feGaussianBlur in="shadowOffsetOuter2" result="shadowBlurOuter2" stdDeviation="5"/><feColorMatrix in="shadowBlurOuter2" result="shadowMatrixOuter2" type="matrix" values="0 0 0 0 0   0 0 0 0 0   0 0 0 0 0  0 0 0 0.16 0"/><feMerge><feMergeNode in="shadowMatrixOuter1"/><feMergeNode in="shadowMatrixOuter2"/></feMerge></filter><filter id="e" height="124%" width="109.5%" x="-4.8%" y="-12%"><feOffset dx="0" dy="0" in="SourceAlpha" result="shadowOffsetOuter1"/><feMorphology in="SourceAlpha" operator="erode" radius="5" result="shadowInner"/><feOffset dx="0" dy="0" in="shadowInner" result="shadowInner"/><feComposite in="shadowOffsetOuter1" in2="shadowInner" operator="out" result="shadowOffsetOuter1"/><feGaussianBlur in="shadowOffsetOuter1" result="shadowBlurOuter1" stdDeviation="3"/><feColorMatrix in="shadowBlurOuter1" type="matrix" values="0 0 0 0 0.49415046   0 0 0 0 0.826234102   0 0 0 0 0.129877269  0 0 0 1 0"/></filter><rect id="f" height="143" rx="8" width="451"/><filter id="g" height="127.3%" width="108.6%" x="-4.3%" y="-13.6%"><feOffset dx="0" dy="0" in="SourceAlpha" result="shadowOffsetOuter1"/><feGaussianBlur in="shadowOffsetOuter1" result="shadowBlurOuter1" stdDeviation="6.5"/><feColorMatrix in="shadowBlurOuter1" type="matrix" values="0 0 0 0 0   0 0 0 0 0   0 0 0 0 0  0 0 0 0.5 0"/></filter><rect id="h" height="57" rx="3" width="200"/><filter id="i" height="173.7%" width="121%" x="-10.5%" y="-29.8%"><feOffset dx="0" dy="2" in="SourceAlpha" result="shadowOffsetOuter1"/><feGaussianBlur in="shadowOffsetOuter1" result="shadowBlurOuter1" stdDeviation="2.5"/><feColorMatrix in="shadowBlurOuter1" result="shadowMatrixOuter1" type="matrix" values="0 0 0 0 0   0 0 0 0 0   0 0 0 0 0  0 0 0 0.26 0"/><feOffset dx="0" dy="2" in="SourceAlpha" result="shadowOffsetOuter2"/><feGaussianBlur in="shadowOffsetOuter2" result="shadowBlurOuter2" stdDeviation="5"/><feColorMatrix in="shadowBlurOuter2" result="shadowMatrixOuter2" type="matrix" values="0 0 0 0 0   0 0 0 0 0   0 0 0 0 0  0 0 0 0.16 0"/><feMerge><feMergeNode in="shadowMatrixOuter1"/><feMergeNode in="shadowMatrixOuter2"/></feMerge></filter><rect id="j" height="57" rx="3" width="200"/><filter id="k" height="173.7%" width="121%" x="-10.5%" y="-29.8%"><feOffset dx="0" dy="2" in="SourceAlpha" result="shadowOffsetOuter1"/><feGaussianBlur in="shadowOffsetOuter1" result="shadowBlurOuter1" stdDeviation="2.5"/><feColorMatrix in="shadowBlurOuter1" result="shadowMatrixOuter1" type="matrix" values="0 0 0 0 0   0 0 0 0 0   0 0 0 0 0  0 0 0 0.26 0"/><feOffset dx="0" dy="2" in="SourceAlpha" result="shadowOffsetOuter2"/><feGaussianBlur in="shadowOffsetOuter2" result="shadowBlurOuter2" stdDeviation="5"/><feColorMatrix in="shadowBlurOuter2" result="shadowMatrixOuter2" type="matrix" values="0 0 0 0 0   0 0 0 0 0   0 0 0 0 0  0 0 0 0.16 0"/><feMerge><feMergeNode in="shadowMatrixOuter1"/><feMergeNode in="shadowMatrixOuter2"/></feMerge></filter><rect id="l" height="300" rx="18" width="584"/><filter id="m" height="108.7%" width="104.5%" x="-2.2%" y="-3.7%"><feOffset dx="0" dy="2" in="SourceAlpha" result="shadowOffsetOuter1"/><feGaussianBlur in="shadowOffsetOuter1" result="shadowBlurOuter1" stdDeviation="4"/><feColorMatrix in="shadowBlurOuter1" type="matrix" values="0 0 0 0 0.616682611   0 0 0 0 0.616682611   0 0 0 0 0.616682611  0 0 0 0.5 0"/></filter><filter id="n" height="136.8%" width="153.8%" x="-23.1%" y="-15.8%"><feOffset dx="0" dy="1" in="SourceAlpha" result="shadowOffsetOuter1"/><feGaussianBlur in="shadowOffsetOuter1" result="shadowBlurOuter1" stdDeviation=".5"/><feColorMatrix in="shadowBlurOuter1" result="shadowMatrixOuter1" type="matrix" values="0 0 0 0 0   0 0 0 0 0   0 0 0 0 0  0 0 0 0.5 0"/><feMerge><feMergeNode in="shadowMatrixOuter1"/><feMergeNode in="SourceGraphic"/></feMerge></filter></defs><g fill-rule="evenodd" id="el_KeT8Nll1fa"><g id="el_brnPIIZ-ie"><use filter="url(#b)" xlink:href="#a" id="el_h9KQ0EjiYx"/><use fill-rule="evenodd" xlink:href="#a" id="el_HrOJ2h_A3X"/><g fill-rule="nonzero" id="el_couZB4h7Mq"><path d="m133 34.6509603-53-12.6509603v99l53-13.749331z" id="el_g7u-WdfQVi"/><path d="m27 34.6509603 53-12.6509603v99l-53-13.475833z" id="el_qVOeT5PAiP"/><path d="m79 23.2205305 27.598025-23.2205305 52.401975 13.612721-27.598025 22.387279z" id="el_Dv5HCqLJhf"/><path d="m1 13.6710592 27.1284621 21.3289408 52.8715379-12.5789408-26.8509443-22.4210592z" id="el_Klka9uFlrC"/><rect height="35" rx="4.5" width="38" x="54" y="11" id="el_GMwcV-dsQB"/><rect height="6" rx="3" width="6" x="58" y="17" id="el_ik4mx6ZcxT"/><rect height="1" rx=".5" width="23" x="65" y="17" id="el__FuMBukgYV"/><rect height="1" rx=".5" width="23" x="65" y="19" id="el_5-MhEz0PCK"/><rect height="1" rx=".5" width="34" x="57" y="26" id="el_MNu8rE3l_7"/><rect height="1" rx=".5" width="34" x="57" y="28" id="el_52XpTQ3uDN"/><rect height="1" rx=".5" width="34" x="57" y="30" id="el_ug6K3lbG_lQ"/><rect height="1" rx=".5" width="20" x="57" y="32" id="el_fqm5afEOAMQ"/><rect height="1" rx=".5" width="34" x="57" y="34" id="el_ntNZ1xcYBe7"/><rect height="1" rx=".5" width="34" x="57" y="37" id="el_uCfxY6pMRtf"/><rect height="1" rx=".5" width="34" x="57" y="39" id="el_EK96VZRmQiG"/><rect height="1" rx=".5" width="20" x="57" y="41" id="el_eYuklqAuKIa"/><rect height="35" rx="4.5" width="38" x="70" y="20" id="el_CB7bPpwLQhr"/><rect height="6" rx="3" width="6" x="73" y="25" id="el_Oehm95Z2FUE"/><g id="el_B-py-l3MloB"><rect height="1" rx=".5" width="24" x="80" y="25" id="el_m48m4eBuTOx"/><rect height="1" rx=".5" width="24" x="80" y="27" id="el_mkVNIllpAsF"/><rect height="1" rx=".5" width="31" x="73" y="34" id="el_gFqOX-XJORi"/><rect height="1" rx=".5" width="31" x="73" y="36" id="el_k232GwEZbsC"/><rect height="1" rx=".5" width="31" x="73" y="39" id="el_Dih8f4smje3"/><rect height="1" rx=".5" width="20" x="73" y="41" id="el_Z1Mu1u_Uum_"/><rect height="1" rx=".5" width="34" x="73" y="43" id="el_2KJ5Ndxzxdz"/><rect height="1" rx=".5" width="34" x="73" y="45" id="el_AU39rzQxpIH"/><rect height="1" rx=".5" width="34" x="73" y="47" id="el_azRv5563PWJ"/><rect height="1" rx=".5" width="20" x="50" y="50" id="el_KIFngWVeEZ3"/><path d="m76 49h22v1h-22z" id="el_TJ6MuT3Leb5"/></g><path d="m91 46h7v1h-7z" id="el_X5KyWGaRw7D"/><path d="m83 53h7v1h-7z" id="el_-o2VlfaSF1L"/><path d="m27 108.422577 53 13.588246v-72.8800742l-53-14.1307488z" id="el_BoQ4aMk5HVX"/><path d="m80 122v-72.8692512l53-14.1307488v73.147016z" id="el_mC0I7vO5yIC"/><path d="m27 73.4544107 29.3830235 7.5455893 23.6169765-19.5656042v-12.0177909l-52.451581-13.4166049z" id="el_LRgx0i_HUVJ"/><path d="m133 73.4544107-29.383023 7.5455893-23.616977-19.5656042v-12.0177909l52.451581-13.4166049z" id="el_AjyWr973ohC"/><path d="m27.1284621 35-27.1284621 21.9761919 52.8715379 13.0238081 27.1284621-21.1623389z" id="el_omiR5XINEQh"/><path d="m132.689511 35 27.310489 21.9761919-52.412961 13.0238081-27.587039-21.1623389z" id="el_5MdLHTBDRZ9"/></g><path d="m143.241699 268.605469h-7.705078l-1.464844 4.394531h-4.672851l7.939453-21.328125h4.072266l7.983398 21.328125h-4.672852zm-6.518554-3.559571h5.332031l-2.680664-7.983398zm23.291015-3.925781c-.576175-.078125-1.083982-.117187-1.523437-.117187-1.601571 0-2.651365.541986-3.149414 1.625976v10.371094h-4.233399v-15.849609h3.999024l.117187 1.889648c.849614-1.455085 2.02636-2.182617 3.530274-2.182617.468752 0 .908201.063476 1.318359.19043zm8.62793 8.759766c.781254 0 1.416013-.214842 1.904297-.644531.488283-.42969.742187-1.000973.761718-1.713868h3.969727c-.009766 1.074224-.302731 2.058101-.878906 2.951661-.576175.893559-1.364741 1.586911-2.365723 2.080078-1.000981.493166-2.106927.739746-3.317871.739746-2.265636 0-4.052728-.720208-5.361328-2.160645s-1.962891-3.430163-1.962891-5.969238v-.27832c0-2.441419.649408-4.389642 1.948242-5.844727 1.298835-1.455085 3.081044-2.182617 5.34668-2.182617 1.982432 0 3.571772.563959 4.768067 1.691894 1.196295 1.127936 1.804199 2.629386 1.82373 4.504395h-3.969727c-.019531-.820317-.273435-1.486814-.761718-1.999512-.488284-.512698-1.132809-.769043-1.933594-.769043-.986333 0-1.730955.358883-2.233887 1.07666s-.754394 1.882317-.754394 3.493653v.439453c0 1.630867.249021 2.802731.74707 3.515625s1.254878 1.069336 2.270508 1.069336zm13.183594-11.000977c1.123052-1.347663 2.534171-2.021484 4.233398-2.021484 3.437517 0 5.180664 1.99705 5.229492 5.991211v10.151367h-4.233398v-10.03418c0-.908207-.195311-1.579587-.585938-2.01416-.390627-.434572-1.040034-.651855-1.948242-.651855-1.24024 0-2.138669.478511-2.695312 1.435547v11.264648h-4.233399v-22.5h4.233399zm17.124023 14.121094h-4.248047v-15.849609h4.248047zm-4.49707-19.951172c0-.634769.2124-1.157224.637207-1.567383.424807-.410158 1.003414-.615234 1.73584-.615234.722659 0 1.298826.205076 1.728515.615234.42969.410159.644531.932614.644531 1.567383 0 .644535-.217283 1.171873-.651855 1.582031-.434572.410159-1.008297.615235-1.721191.615235-.712895 0-1.286619-.205076-1.721192-.615235-.434572-.410158-.651855-.937496-.651855-1.582031zm13.916015 14.780274 2.944336-10.678711h4.423828l-5.346679 15.849609h-4.042969l-5.34668-15.849609h4.423828zm16.523438 5.463867c-2.324231 0-4.216301-.712884-5.67627-2.138672-1.459968-1.425789-2.189941-3.325184-2.189941-5.698242v-.410157c0-1.591804.307614-3.01513.922851-4.270019.615238-1.254889 1.486811-2.221676 2.614747-2.900391 1.127935-.678714 2.414543-1.018066 3.859863-1.018066 2.167979 0 3.874505.683587 5.119629 2.050781 1.245123 1.367194 1.867676 3.305652 1.867676 5.81543v1.728515h-10.092774c.13672 1.035162.549313 1.865232 1.237793 2.490235s1.560053.9375 2.614746.9375c1.630868 0 2.905269-.590815 3.823242-1.772461l2.080078 2.329101c-.634768.898442-1.494135 1.599119-2.578125 2.102051-1.083989.502932-2.285149.754395-3.603515.754395zm-.483399-13.007813c-.839848 0-1.520993.283201-2.043457.84961-.522463.566409-.856932 1.376947-1.003418 2.43164h5.888672v-.336914c-.019531-.937504-.273435-1.662595-.761718-2.175293-.488284-.512698-1.181637-.769043-2.080079-.769043zm21.547852 5.200196v7.514648h-4.394531v-21.328125h8.320312c1.601571 0 3.010248.292966 4.226074.878906 1.215827.585941 2.150876 1.418452 2.805176 2.497559s.981446 2.307122.981446 3.684082c0 2.089854-.715325 3.737787-2.145997 4.943848-1.430671 1.20606-3.410631 1.809082-5.939941 1.809082zm0-3.559571h3.925781c1.162115 0 2.048337-.273435 2.658692-.820312.610354-.546878.915527-1.32812.915527-2.34375 0-1.044927-.307614-1.889645-.922852-2.53418-.615237-.644534-1.464838-.976562-2.548828-.996094h-4.02832zm23.583984-.805664c-.576174-.078125-1.083982-.117187-1.523437-.117187-1.601571 0-2.651365.541986-3.149414 1.625976v10.371094h-4.233399v-15.849609h3.999024l.117187 1.889648c.849614-1.455085 2.02636-2.182617 3.530274-2.182617.468752 0 .908201.063476 1.318359.19043zm1.376953 3.808594c0-1.572274.302732-2.973627.908204-4.204102.605471-1.230475 1.477045-2.182613 2.614746-2.856445 1.137701-.673831 2.458488-1.010742 3.962402-1.010742 2.138683 0 3.884271.65429 5.236816 1.96289 1.352546 1.308601 2.106933 3.085927 2.263184 5.332032l.029297 1.083984c0 2.431653-.678704 4.382317-2.036133 5.852051s-3.178699 2.20459-5.463867 2.20459-4.10888-.732415-5.471191-2.197266c-1.362312-1.464851-2.043458-3.457019-2.043458-5.976562zm4.233399.307617c0 1.503914.2832 2.653805.849609 3.449707.566409.795903 1.376948 1.193848 2.431641 1.193848 1.025396 0 1.826169-.393063 2.402344-1.179199.576174-.786137.864257-2.043449.864257-3.771973 0-1.474617-.288083-2.617184-.864257-3.427734-.576175-.810551-1.386714-1.215821-2.431641-1.215821-1.035161 0-1.835935.402828-2.402344 1.208496s-.849609 2.053215-.849609 3.742676zm17.871094-8.085937v16.713867c0 1.748055-.463863 3.107905-1.391602 4.07959-.927739.971684-2.265616 1.457519-4.013672 1.457519-.732425 0-1.430661-.083007-2.094726-.249023v-3.354492c.507815.087891.952146.131836 1.333007.131836 1.279304 0 1.918946-.678705 1.918946-2.036133v-16.743164zm-4.584961-4.101563c0-.634769.2124-1.157224.637207-1.567383.424807-.410158 1.003414-.615234 1.73584-.615234.732425 0 1.311033.205076 1.735839.615234.424807.410159.637207.932614.637207 1.567383 0 .644535-.217283 1.171873-.651855 1.582031-.434572.410159-1.008297.615235-1.721191.615235-.712895 0-1.286619-.205076-1.721192-.615235-.434572-.410158-.651855-.937496-.651855-1.582031zm15.190429 20.244141c-2.32423 0-4.216301-.712884-5.676269-2.138672-1.459968-1.425789-2.189942-3.325184-2.189942-5.698242v-.410157c0-1.591804.307615-3.01513.922852-4.270019s1.486811-2.221676 2.614746-2.900391c1.127935-.678714 2.414544-1.018066 3.859863-1.018066 2.16798 0 3.874506.683587 5.119629 2.050781 1.245124 1.367194 1.867676 3.305652 1.867676 5.81543v1.728515h-10.092773c.136719 1.035162.549313 1.865232 1.237793 2.490235s1.560053.9375 2.614746.9375c1.630867 0 2.905269-.590815 3.823242-1.772461l2.080078 2.329101c-.634769.898442-1.494135 1.599119-2.578125 2.102051s-2.28515.754395-3.603516.754395zm-.483398-13.007813c-.839848 0-1.520994.283201-2.043457.84961-.522464.566409-.856933 1.376947-1.003418 2.43164h5.888672v-.336914c-.019532-.937504-.273435-1.662595-.761719-2.175293s-1.181636-.769043-2.080078-.769043zm15.996094 9.594727c.781254 0 1.416013-.214842 1.904297-.644531.488283-.42969.742187-1.000973.761718-1.713868h3.969727c-.009766 1.074224-.302732 2.058101-.878906 2.951661-.576175.893559-1.364741 1.586911-2.365723 2.080078-1.000982.493166-2.106928.739746-3.317871.739746-2.265636 0-4.052728-.720208-5.361328-2.160645-1.308601-1.440437-1.962891-3.430163-1.962891-5.969238v-.27832c0-2.441419.649408-4.389642 1.948242-5.844727 1.298835-1.455085 3.081044-2.182617 5.34668-2.182617 1.982432 0 3.571771.563959 4.768066 1.691894 1.196295 1.127936 1.8042 2.629386 1.823731 4.504395h-3.969727c-.019531-.820317-.273435-1.486814-.761718-1.999512-.488284-.512698-1.132809-.769043-1.933594-.769043-.986333 0-1.730955.358883-2.233887 1.07666s-.754394 1.882317-.754394 3.493653v.439453c0 1.630867.249021 2.802731.74707 3.515625s1.254878 1.069336 2.270508 1.069336zm14.121093-16.625977v3.896485h2.709961v3.105468h-2.709961v7.910157c0 .58594.112304 1.005858.336915 1.259765.22461.253908.654293.38086 1.289062.38086.468752 0 .883787-.03418 1.245117-.102539v3.208007c-.830082.253908-1.684566.38086-2.563476.38086-2.968765 0-4.482422-1.499009-4.541016-4.497071v-8.540039h-2.314453v-3.105468h2.314453v-3.896485z" id="el_yTIXnb3Hq-0"/><g stroke-linecap="square" id="el_RhhMxYidTaf"><path d="m.5 1.5h390.103832" id="el_BDwAP_tKuU5"/><path d="m.5 31.5h390.103832" id="el_2mJaMFN4D2L"/><path d="m.5 61.5h390.103832" id="el_34L9HUeHY39"/><path d="m.5 91.5h293.963433" id="el_wM-5-eo7JS_"/></g></g><rect height="530" rx="18" width="467" x="227" y="173" id="el_W06tmx3xpRU"/><g id="el_QxEKC6BYI9a_an_x7mD4s1vN" data-animator-group="true" data-animator-type="2"><g id="el_QxEKC6BYI9a"><use filter="url(#d)" xlink:href="#c" id="el_IBKwXPsPTx0"/><use fill-rule="evenodd" xlink:href="#c" id="el_wY6WDTaPaET"/><g id="el_NwlaQrllg77"><path d="m64.896875 33.0703125h-5.1367188l-.9765625 2.9296875h-3.1152343l5.2929687-14.21875h2.7148438l5.3222656 14.21875h-3.1152344zm-4.3457031-2.3730469h3.5546875l-1.7871094-5.3222656zm16.0390625.0976563h-2.3339844v5.2050781h-2.9296875v-14.21875h5.2832031c1.6796959 0 2.9752559.3743452 3.8867188 1.1230469.9114629.7487016 1.3671875 1.8066338 1.3671875 3.1738281 0 .9700569-.2099589 1.7789681-.6298828 2.4267578-.419924.6477897-1.0563109 1.1637351-1.9091797 1.5478516l3.0761718 5.8105468v.1367188h-3.1445312zm-2.3339844-2.3730469h2.3632812c.7356808 0 1.3053366-.1871726 1.7089844-.5615234.4036479-.3743509.6054688-.8902962.6054688-1.5478516 0-.6705763-.1904278-1.1979147-.5712891-1.5820312-.3808613-.3841166-.9651653-.5761719-1.7529297-.5761719h-2.3535156zm21.9960937 2.8417969c-.1106776 1.5299555-.6754506 2.7343706-1.6943359 3.6132812-1.0188853.8789107-2.3616453 1.3183594-4.0283203 1.3183594-1.8229258 0-3.2568307-.6136006-4.3017578-1.8408203s-1.5673828-2.9117732-1.5673828-5.053711v-.8691406c0-1.3671943.240883-2.5716094.7226562-3.6132812.4817733-1.0416719 1.1702429-1.8408176 2.0654297-2.397461s1.9352154-.8349609 3.1201172-.8349609c1.6406332 0 2.9622346.4394487 3.9648437 1.3183594 1.0026092.8789106 1.5820305 2.1126222 1.7382813 3.7011719h-2.9296875c-.0716149-.9179734-.3271462-1.5836568-.7666016-1.9970704-.4394553-.4134135-1.1083939-.6201172-2.0068359-.6201172-.9765674 0-1.7073543.3499314-2.1923828 1.0498047s-.7340494 1.7854745-.7470703 3.256836v1.0742187c0 1.536466.232745 2.6595017.6982422 3.3691406.4654971.709639 1.1995392 1.0644532 2.2021484 1.0644532.9049524 0 1.5804014-.2067037 2.0263672-.6201172s.7014971-1.0530556.7666015-1.9189453zm14.4960933 4.7363281h-2.929687v-6.09375h-5.712891v6.09375h-2.9296871v-14.21875h2.9296871v5.7617188h5.712891v-5.7617188h2.929687zm6.673829 0h-2.929688v-14.21875h2.929688zm8.96875-3.5253906 3.222656-10.6933594h3.261719l-4.951172 14.21875h-3.056641l-4.931641-14.21875h3.251954zm17.376953-2.6367188h-5.625v3.8085938h6.601562v2.3535156h-9.53125v-14.21875h9.511719v2.3730469h-6.582031v3.3886719h5.625z" id="el__Y-xemNtLRK"/><path d="m17.54 2.23-1.39-1.68c-.27-.34-.68-.55-1.15-.55h-12c-.47 0-.88.21-1.16.55l-1.38 1.68c-.29.34-.46.79-.46 1.27v12.5c0 1.1.9 2 2 2h14c1.1 0 2-.9 2-2v-12.5c0-.48-.17-.93-.46-1.27zm-8.54 12.27-5.5-5.5h3.5v-2h4v2h3.5zm-6.88-12.5.81-1h12l.94 1z" fill-rule="nonzero" id="el_7qcervHP-QH"/></g></g></g><rect height="70" rx="9" width="184" x="480.5" y="602.5" id="el_Ijs8UZwP7qq"/><g id="el_WmNm9VaBsqM"><use filter="url(#g)" xlink:href="#f" id="el_12zGGptufy5"/><use fill-rule="evenodd" xlink:href="#f" id="el_UBCISrlsltG"/><g id="el_qBvPPM84w3X"><path d="m19 6.41-1.41-1.41-5.59 5.59-5.59-5.59-1.41 1.41 5.59 5.59-5.59 5.59 1.41 1.41 5.59-5.59 5.59 5.59 1.41-1.41-5.59-5.59z" fill-rule="nonzero" id="el_iU9nhIgapwh"/><path d="m0 0h24v24h-24z" id="el_naQ88tkGVog"/></g><g id="el_T60GTKyZD7H"><use filter="url(#i)" xlink:href="#h" id="el_znpS0qXbwST"/><use fill-rule="evenodd" xlink:href="#h" id="el_lBmr2h2KmLm"/><path d="m87.2177734 26.1875 2.9589844-6.40625h3.203125l-4.6679687 9.0625v5.15625h-2.9785157v-5.15625l-4.6679687-9.0625h3.2128906zm17.0156246 1.6503906h-5.6249996v3.8085938h6.6015626v2.3535156h-9.5312501v-14.21875h9.5117191v2.3730469h-6.5820316v3.3886719h5.6249996zm11.06836 2.4316406c0-.5533881-.195311-.9781886-.585938-1.274414-.390627-.2962255-1.093745-.6087223-2.109375-.9375s-1.819658-.6526677-2.412109-.9716797c-1.614591-.8724002-2.421875-2.0475187-2.421875-3.5253906 0-.768233.216469-1.4534475.649414-2.0556641.432945-.6022165 1.054683-1.0725894 1.865234-1.4111328s1.720373-.5078125 2.729493-.5078125c1.01563 0 1.920569.1839174 2.714843.5517578.794275.3678404 1.411131.8870409 1.850586 1.5576172.439456.6705763.65918 1.4322874.65918 2.2851563h-2.929688c0-.651045-.205076-1.1572248-.615234-1.5185547-.410158-.36133-.986324-.5419922-1.728516-.5419922-.716149 0-1.272784.1513656-1.669921.4541015-.397138.3027359-.595704.701495-.595704 1.1962891 0 .4622419.232746.8496078.698243 1.1621094.465497.3125015 1.150711.6054674 2.055664.8789062 1.666675.5013046 2.880855 1.1230432 3.642578 1.8652344.761722.7421912 1.142578 1.6666611 1.142578 2.7734375 0 1.2304749-.46549 2.1956345-1.396484 2.8955078-.930995.6998733-2.184237 1.0498047-3.759766 1.0498047-1.093756 0-2.089839-.2001933-2.988281-.6005859-.898442-.4003927-1.583657-.9488898-2.055664-1.6455078-.472008-.6966181-.708008-1.5039017-.708008-2.421875h2.939453c0 1.5690182.937491 2.3535156 2.8125 2.3535156.696618 0 1.240232-.1416002 1.630859-.4248047.390627-.2832046.585938-.6787084.585938-1.1865235z" id="el_jqWllsw8smF"/></g><g id="el_pfGsC4DK370_an_UJpXRkar3" data-animator-group="true" data-animator-type="2"><g id="el_pfGsC4DK370"><use filter="url(#k)" xlink:href="#j" id="el_skvKNbJ7L7u"/><use fill-rule="evenodd" xlink:href="#j" id="el_Zaaa2Igun_f"/><path d="m98.3671875 34h-2.9296875l-5.703125-9.3554688v9.3554688h-2.9296875v-14.21875h2.9296875l5.7128906 9.375v-9.375h2.9199219zm15.2382815-6.7871094c0 1.3997466-.247394 2.6269479-.742188 3.6816406-.494794 1.0546928-1.202795 1.8684868-2.124023 2.4414063-.921229.5729195-1.977533.859375-3.168946.859375-1.178391 0-2.229813-.2832003-3.154296-.8496094-.924484-.5664091-1.640623-1.3753202-2.148438-2.4267578-.507815-1.0514375-.764974-2.2607353-.771484-3.6279297v-.703125c0-1.3997466.252276-2.6318306.756836-3.696289.50456-1.0644585 1.217443-1.8815076 2.138672-2.4511719.921228-.5696643 1.974277-.8544922 3.159179-.8544922s2.237951.2848279 3.15918.8544922 1.634112 1.3867134 2.138672 2.4511719c.50456 1.0644584.756836 2.2932873.756836 3.6865234zm-2.96875-.6445312c0-1.4908929-.266925-2.6236941-.800781-3.3984375-.533857-.7747435-1.295568-1.1621094-2.285157-1.1621094-.983078 0-1.741534.3824832-2.27539 1.1474609-.533857.7649778-.804037 1.8863859-.810547 3.3642578v.6933594c0 1.4518302.266924 2.578121.800781 3.3789063.533857.8007852 1.302078 1.2011719 2.304687 1.2011719.983078 0 1.738279-.3857384 2.265626-1.1572266.527346-.7714882.79427-1.8961515.800781-3.3740234z" id="el_WG86SSCXddO"/></g></g><path d="m24.8959961 35.3969727.3417969 2.34375.5004882-2.1118165 3.515625-12.4023437h1.9775391l3.4301758 12.4023437.4882812 2.1484376.378418-2.3925782 2.7587891-12.1582031h2.355957l-4.309082 17.7734375h-2.1362305l-3.6621094-12.9516602-.2807617-1.3549804-.2807617 1.3549804-3.7963867 12.9516602h-2.1362305l-4.296875-17.7734375h2.34375zm26.1474609 5.6030273c-.130209-.260418-.2360022-.7242805-.3173828-1.3916016-1.0498099 1.0905003-2.3030526 1.6357422-3.7597656 1.6357422-1.3020898 0-2.3701944-.3682417-3.2043457-1.1047363s-1.2512207-1.6703231-1.2512207-2.8015137c0-1.3753324.5228626-2.4434369 1.5686035-3.2043457 1.0457409-.7609087 2.5166735-1.1413574 4.4128418-1.1413574h2.1972656v-1.0375977c0-.7893919-.2360002-1.4180477-.7080078-1.8859863-.4720076-.4679385-1.1678014-.7019043-2.0874023-.7019043-.8056681 0-1.4811171.2034485-2.0263672.6103516s-.8178711.8992484-.8178711 1.4770508h-2.2705078c0-.659183.2339657-1.2959768.7019043-1.9104004.4679385-.6144237 1.1026978-1.1006656 1.9042968-1.4587403.8015991-.3580747 1.6825311-.5371093 2.6428223-.5371093 1.5218175 0 2.7140256.3804486 3.5766602 1.1413574.8626345.7609087 1.3102212 1.8086684 1.3427734 3.1433105v6.0791016c0 1.2125712.1546209 2.176917.4638672 2.8930664v.1953125zm-3.7475586-1.7211914c.7080114 0 1.3793914-.1831036 2.0141602-.5493164s1.0945624-.8422822 1.3793945-1.4282227v-2.7099609h-1.7700195c-2.7669409 0-4.1503906.809725-4.1503906 2.4291992 0 .7080114.2360002 1.2613912.7080078 1.6601563.4720075.398765 1.078284.5981445 1.8188476.5981445zm16.8823243-1.7822266c0-.6103546-.2298968-1.0843896-.6896973-1.4221191-.4598005-.3377296-1.2613875-.6286609-2.4047852-.8728027-1.1433976-.2441419-2.0507779-.5371077-2.7221679-.8789063-.6713901-.3417986-1.1678044-.7486956-1.4892578-1.2207031-.3214535-.4720076-.4821778-1.0335254-.4821778-1.6845703 0-1.0823622.4577591-1.9978804 1.373291-2.7465821.915532-.7487016 2.0853608-1.1230468 3.5095215-1.1230468 1.4974033 0 2.7119908.3865521 3.6437988 1.1596679.9318081.7731159 1.3977051 1.7618755 1.3977051 2.9663086h-2.2705078c0-.6184927-.2624485-1.1515277-.7873535-1.5991211s-1.1861126-.6713867-1.9836426-.6713867c-.8219442 0-1.4648414.1790347-1.9287109.5371094s-.6958008.8260062-.6958008 1.4038086c0 .5452501.2156554.956216.6469727 1.2329101.4313172.2766941 1.2105249.5411772 2.3376464.7934571 1.1271216.2522799 2.0406053.5533836 2.7404786.9033203.6998732.3499366 1.2186669.771075 1.5563964 1.2634277.3377296.4923527.5065918 1.0925258.5065918 1.8005371 0 1.1800189-.4720005 2.1260544-1.4160156 2.8381348s-2.168775 1.0681152-3.6743164 1.0681152c-1.057948 0-1.993811-.1871726-2.8076172-.5615234-.8138061-.3743508-1.4505999-.8972135-1.9104004-1.5686035-.4598004-.6713901-.6896972-1.3977012-.6896972-2.1789551h2.2583007c.0406904.7568397.3438286 1.3570128.9094239 1.8005371.5655952.4435244 1.3122512.6652832 2.2399902.6652832.8544965 0 1.5401179-.1729312 2.0568848-.5187988s.7751465-.8076957.7751465-1.3854981zm21.3012695-.1586914h-6.4208984l-1.2207032 3.6621094h-3.8940429l6.6162109-17.7734375h3.3935547l6.652832 17.7734375h-3.894043zm-5.4321289-2.9663086h4.4433594l-2.2338868-6.652832zm19.4091797-3.2714843c-.4801457-.0651045-.9033185-.0976563-1.2695313-.0976563-1.3346421 0-2.2094706.4516556-2.6245117 1.3549805v8.6425781h-3.527832v-13.2080078h3.3325195l.0976563 1.574707c.7080113-1.2125711 1.688633-1.8188476 2.9418945-1.8188476.3906269 0 .7568342.0528966 1.0986328.1586914zm7.189941 7.2998046c.651045 0 1.180011-.1790346 1.586914-.5371093.406904-.3580747.61849-.8341442.634766-1.4282227h3.308106c-.008139.8951868-.252277 1.7150842-.732422 2.4597168-.480146.7446326-1.137285 1.3224263-1.971436 1.7333984-.834151.4109722-1.755773.6164551-2.764892.6164551-1.888031 0-3.377274-.600173-4.467774-1.8005371s-1.635742-2.8584692-1.635742-4.9743652v-.2319336c0-2.0345154.541173-3.6580343 1.623535-4.8706055 1.082362-1.2125711 2.567536-1.8188476 4.455566-1.8188476 1.652027 0 2.976477.469966 3.973389 1.4099121.996913.9399461 1.503499 2.1911543 1.519776 3.7536621h-3.308106c-.016276-.6835972-.227862-1.2390116-.634766-1.6662598-.406903-.4272482-.944007-.6408691-1.611328-.6408691-.821944 0-1.442462.2990692-1.861572.8972168-.41911.5981475-.628662 1.5685968-.628662 2.9113769v.366211c0 1.3590562.207517 2.335609.622559 2.9296875.415041.5940785 1.045731.8911132 1.892089.8911132zm10.986328-9.1674804c.935878-1.1230525 2.11181-1.6845703 3.527833-1.6845703 2.864597 0 4.317219 1.6642086 4.35791 4.9926757v8.4594727h-3.527832v-8.3618164c0-.7568397-.162759-1.3163231-.488282-1.6784668-.325522-.3621437-.866695-.5432129-1.623535-.5432129-1.033534 0-1.782224.398759-2.246094 1.1962891v9.387207h-3.527832v-18.75h3.527832zm14.27002 11.7675781h-3.540039v-13.2080078h3.540039zm-3.747559-16.6259766c0-.528974.177001-.9643537.531006-1.3061523.354006-.3417986.836179-.5126953 1.446533-.5126953.602217 0 1.082355.1708967 1.44043.5126953s.53711.7771783.53711 1.3061523c0 .5371121-.18107.9765608-.543213 1.3183594-.362144.3417986-.840248.5126953-1.434327.5126953-.594078 0-1.072182-.1708967-1.434326-.5126953-.362143-.3417986-.543213-.7812473-.543213-1.3183594zm11.59668 12.3168946 2.453613-8.8989258h3.686524l-4.455567 13.2080078h-3.36914l-4.455567-13.2080078h3.686524zm11.413574 4.309082h-3.540039v-13.2080078h3.540039zm-3.747558-16.6259766c0-.528974.177-.9643537.531006-1.3061523.354005-.3417986.836178-.5126953 1.446533-.5126953.602216 0 1.082355.1708967 1.44043.5126953.358074.3417986.537109.7771783.537109 1.3061523 0 .5371121-.181069.9765608-.543213 1.3183594s-.840248.5126953-1.434326.5126953c-.594079 0-1.072183-.1708967-1.434326-.5126953-.362144-.3417986-.543213-.7812473-.543213-1.3183594zm9.899902 3.4179688.109863 1.5258789c.944016-1.1800189 2.209465-1.7700195 3.796387-1.7700195 1.399747 0 2.441403.4109659 3.125 1.2329101s1.033529 2.0507731 1.049805 3.6865235v8.5327148h-3.527832v-8.4472656c0-.7487017-.162759-1.2919091-.488282-1.6296387-.325522-.3377296-.866695-.5065918-1.623535-.5065918-.992843 0-1.737465.4231729-2.233886 1.2695313v9.3139648h-3.527832v-13.2080078zm10.241699 6.5063476c0-2.0263773.482173-3.6580341 1.446534-4.8950195.96436-1.2369853 2.264396-1.8554687 3.900146-1.8554687 1.448575 0 2.57568.4964143 3.381348 1.4892578l.146484-1.2451172h3.198242v12.7685547c0 1.1556047-.262448 2.1606402-.787353 3.0151367s-1.263423 1.5055316-2.215576 1.953125c-.952154.4475934-2.067051.6713867-3.344727.6713867-.968429 0-1.91243-.193276-2.832031-.579834-.919601-.3865579-1.615395-.8850067-2.087403-1.4953613l1.5625-2.1484375c.878911.9847054 1.944981 1.4770508 3.198243 1.4770508.935877 0 1.664222-.2502417 2.185058-.7507324.520836-.5004908.78125-1.210526.78125-2.130127v-.7080078c-.813806.9196009-1.883945 1.3793945-3.210449 1.3793945-1.586922 0-2.870682-.6205179-3.851318-1.8615722-.980637-1.2410544-1.470948-2.8869527-1.470948-4.9377442zm3.527832.2563477c0 1.196295.24007 2.1341926.720215 2.8137207.480146.6795281 1.139319 1.0192871 1.977539 1.0192871 1.074224 0 1.84326-.402828 2.307129-1.2084961v-5.5541992c-.472007-.8056681-1.232905-1.2084961-2.282715-1.2084961-.846358 0-1.511635.3458624-1.995849 1.0375977-.484215.6917352-.726319 1.7252535-.726319 3.1005859zm23.31543 6.6894531c-1.790374 0-3.247065-.5879661-4.370117-1.763916-1.123053-1.1759499-1.68457-2.7486067-1.68457-4.7180176v-.415039c0-1.3102279.250241-2.4800567.750732-3.5095215s1.200354-1.8351208 2.099609-2.4169922c.899256-.5818714 1.873774-.8728027 2.923584-.8728027 1.717131 0 3.051753.5655868 4.003907 1.6967773.952153 1.1311906 1.428222 2.7506405 1.428222 4.8583984v.9399415h-8.947754c.032553 1.3020898.413001 2.3539185 1.141358 3.1555175.728356.8015991 1.654047 1.2023926 2.777099 1.2023926.79753 0 1.472979-.1627588 2.026368-.4882812.553388-.3255225 1.037595-.7568333 1.452636-1.2939454l1.379395 1.0742188c-1.106777 1.7008549-2.766916 2.5512695-4.980469 2.5512695zm-.280762-11.8408203c-.911463 0-1.676429.331621-2.294922.9948731-.618492.663252-1.000975 1.5930116-1.14746 2.7893066h6.61621v-.1708984c-.065104-1.1474667-.374346-2.0365366-.927734-2.6672364-.553388-.6306997-1.302079-.9460449-2.246094-.9460449zm16.198731 11.5966797c-.130209-.260418-.236002-.7242805-.317383-1.3916016-1.04981 1.0905003-2.303053 1.6357422-3.759766 1.6357422-1.302089 0-2.370194-.3682417-3.204345-1.1047363-.834152-.7364946-1.251221-1.6703231-1.251221-2.8015137 0-1.3753324.522863-2.4434369 1.568603-3.2043457 1.045741-.7609087 2.516674-1.1413574 4.412842-1.1413574h2.197266v-1.0375977c0-.7893919-.236-1.4180477-.708008-1.8859863-.472008-.4679385-1.167801-.7019043-2.087402-.7019043-.805668 0-1.481117.2034485-2.026367.6103516-.545251.4069031-.817872.8992484-.817872 1.4770508h-2.270507c0-.659183.233965-1.2959768.701904-1.9104004.467938-.6144237 1.102698-1.1006656 1.904297-1.4587403s1.682531-.5371093 2.642822-.5371093c1.521818 0 2.714026.3804486 3.57666 1.1413574.862635.7609087 1.310221 1.8086684 1.342774 3.1433105v6.0791016c0 1.2125712.154621 2.176917.463867 2.8930664v.1953125zm-3.747559-1.7211914c.708012 0 1.379392-.1831036 2.01416-.5493164.634769-.3662128 1.094563-.8422822 1.379395-1.4282227v-2.7099609h-1.77002c-2.766941 0-4.15039.809725-4.15039 2.4291992 0 .7080114.236 1.2613912.708008 1.6601563.472007.398765 1.078284.5981445 1.818847.5981445zm16.882324-1.7822266c0-.6103546-.229896-1.0843896-.689697-1.4221191-.4598-.3377296-1.261387-.6286609-2.404785-.8728027-1.143398-.2441419-2.050778-.5371077-2.722168-.8789063s-1.167804-.7486956-1.489258-1.2207031c-.321453-.4720076-.482178-1.0335254-.482178-1.6845703 0-1.0823622.45776-1.9978804 1.373291-2.7465821.915532-.7487016 2.085361-1.1230468 3.509522-1.1230468 1.497403 0 2.711991.3865521 3.643799 1.1596679.931808.7731159 1.397705 1.7618755 1.397705 2.9663086h-2.270508c0-.6184927-.262448-1.1515277-.787353-1.5991211s-1.186113-.6713867-1.983643-.6713867c-.821944 0-1.464841.1790347-1.928711.5371094-.463869.3580747-.695801.8260062-.695801 1.4038086 0 .5452501.215656.956216.646973 1.2329101s1.210525.5411772 2.337646.7934571c1.127122.2522799 2.040606.5533836 2.740479.9033203.699873.3499366 1.218667.771075 1.556396 1.2634277.33773.4923527.506592 1.0925258.506592 1.8005371 0 1.1800189-.472 2.1260544-1.416015 2.8381348-.944016.7120804-2.168775 1.0681152-3.674317 1.0681152-1.057948 0-1.993811-.1871726-2.807617-.5615234s-1.4506-.8972135-1.9104-1.5686035c-.459801-.6713901-.689698-1.3977012-.689698-2.1789551h2.258301c.04069.7568397.343829 1.3570128.909424 1.8005371.565595.4435244 1.312251.6652832 2.23999.6652832.854497 0 1.540118-.1729312 2.056885-.5187988s.775146-.8076957.775146-1.3854981zm9.521485.1953125 3.076172-9.8999023h2.416992l-5.310059 15.246582c-.821944 2.1972766-2.128083 3.2958985-3.918457 3.2958985l-.427246-.0366211-.842285-.1586914v-1.8310547l.610352.0488281c.764977 0 1.361081-.1546209 1.78833-.4638672.427248-.3092463.779214-.8748331 1.055908-1.6967773l.500488-1.3427735-4.711914-13.0615234h2.46582zm16.760254-13.0981445v3.1982422h2.46582v1.7456055h-2.46582v8.1909179c0 .528974.109862.9256986.32959 1.1901856.219727.264487.594072.3967285 1.123046.3967285.260418 0 .618488-.0488276 1.074219-.1464844v1.8310547c-.594078.1627612-1.171872.2441406-1.733398.2441406-1.00912 0-1.770017-.3051727-2.282715-.9155273s-.769043-1.4770452-.769043-2.6000977v-8.1909179h-2.404785v-1.7456055h2.404785v-3.1982422zm4.504394 9.6801758c0-1.2939518.254311-2.4576771.76294-3.491211.508629-1.0335338 1.216629-1.8310518 2.124023-2.3925781.907394-.5615262 1.942947-.8422851 3.10669-.8422851 1.798511 0 3.253168.6225523 4.364013 1.8676757 1.110846 1.2451235 1.66626 2.9011941 1.66626 4.9682618v.1586914c0 1.2858137-.246173 2.4393666-.738525 3.4606933-.492353 1.0213267-1.196285 1.8168103-2.111817 2.3864746s-1.96736.8544922-3.155517.8544922c-1.790374 0-3.240962-.6225523-4.351807-1.8676758-1.110845-1.2451234-1.66626-2.8930561-1.66626-4.9438476zm2.270508.2685547c0 1.464851.339759 2.6407833 1.019287 3.527832s1.588943 1.3305664 2.728272 1.3305664c1.147466 0 2.058916-.4496211 2.734375-1.3488769s1.013183-2.158602 1.013183-3.7780762c0-1.448575-.343828-2.6224727-1.031494-3.5217285s-1.60115-1.348877-2.740478-1.348877c-1.114915 0-2.014157.4435177-2.697754 1.3305664-.683598.8870487-1.025391 2.1565673-1.025391 3.8085938zm19.53125 6.4575195v-11.4624023h-2.087402v-1.7456055h2.087402v-1.1230469c0-1.4729891.421138-2.6204386 1.263428-3.4423828.842289-.8219442 2.032463-1.2329102 3.570556-1.2329102.911463 0 2.062982.2482072 3.45459.7446289l-.378418 1.9042969c-1.017257-.4069031-1.985672-.6103515-2.905273-.6103515-.968429 0-1.666258.2176898-2.093506.6530761s-.640869 1.088456-.640869 1.9592285v1.147461h2.697754v1.7456055h-2.697754v11.4624023zm9.411621 0h-2.270508v-13.2080078h2.270508zm5.810547-13.2080078.073242 1.6601562c1.00912-1.2695376 2.327466-1.9042968 3.955078-1.9042968 2.791355 0 4.199219 1.5746912 4.223633 4.7241211v8.7280273h-2.258301v-8.7402344c-.008138-.9521532-.225828-1.6560849-.653076-2.1118164-.427248-.4557314-1.092525-.6835937-1.995849-.6835937-.732426 0-1.375323.1953105-1.928711.5859375-.553389.3906269-.984699.9033171-1.293946 1.5380859v9.4116211h-2.2583v-13.2080078zm11.108398 6.4941406c0-2.0263773.480139-3.6559997 1.44043-4.888916s2.217603-1.8493652 3.771973-1.8493652c1.546231 0 2.770991.528966 3.674316 1.586914v-6.8847656h2.258301v18.75h-2.075195l-.109864-1.4160156c-.903324 1.1067763-2.160636 1.6601562-3.771972 1.6601562-1.529956 0-2.777095-.6266213-3.741455-1.8798828-.964361-1.2532615-1.446534-2.8889873-1.446534-4.9072266zm2.258301.2563477c0 1.4974033.309242 2.6692666.927735 3.515625.618492.8463584 1.472976 1.2695312 2.563476 1.2695312 1.432299 0 2.478024-.6428972 3.137207-1.9287109v-6.0668946c-.675459-1.2451234-1.713046-1.8676757-3.112793-1.8676757-1.106776 0-1.969398.4272418-2.58789 1.2817383-.618493.8544964-.927735 2.119946-.927735 3.7963867zm15.039063 1.4526367c.016276-.9684293.126138-1.7333956.32959-2.2949219.203451-.5615262.618486-1.1840786 1.245117-1.8676758l1.599121-1.6479492c.683597-.7731158 1.02539-1.6031857 1.02539-2.4902344 0-.8544964-.223793-1.5238419-.671386-2.0080566-.447594-.4842147-1.098629-.7263184-1.953125-.7263184-.830083 0-1.497394.2197244-2.001953.6591797-.50456.4394553-.756836 1.029456-.756836 1.7700196h-2.258301c.016276-1.318366.486242-2.3824016 1.409912-3.1921387s2.126051-1.2145996 3.607178-1.2145996c1.538093 0 2.736405.4130004 3.59497 1.2390136.858566.8260133 1.287842 1.9592214 1.287842 3.3996583 0 1.4241607-.659173 2.8279553-1.977539 4.2114257l-1.330566 1.3183594c-.594079.659183-.891113 1.6072529-.891113 2.8442383zm-.097657 3.8696289c0-.3662128.111897-.67342.335694-.9216309.223797-.2482108.555418-.3723144.994873-.3723144s.773111.1241036 1.000976.3723144c.227866.2482109.341797.5554181.341797.9216309s-.113931.669351-.341797.9094238c-.227865.2400728-.561521.3601074-1.000976.3601074s-.771076-.1200346-.994873-.3601074-.335694-.543211-.335694-.9094238z" id="el_PvB-UB44hSc"/></g><g id="el_4UI2cGrdX9X"><use filter="url(#m)" xlink:href="#l" id="el_HicK3INhnNS"/><use fill-rule="evenodd" xlink:href="#l" id="el_3Z2YPOx1rnl"/><g id="el_naKuD-0_Wt7"><path d="m7.71484375 9.234375 3.69873045-8.0078125h4.0039063l-5.83496097 11.328125v6.4453125h-3.72314453v-6.4453125l-5.83496094-11.328125h4.01611328zm20.01953125 2.0629883h-7.03125v4.7607422h8.2519531v2.9418945h-11.9140625v-17.7734375h11.8896485v2.96630859h-8.2275391v4.23583985h7.03125zm12.5854492 3.0395508c0-.6917353-.2441382-1.2227358-.7324219-1.5930176-.4882836-.3702818-1.3671811-.7609029-2.6367187-1.171875s-2.2745731-.8158346-3.0151367-1.2145996c-2.0182393-1.09050027-3.0273438-2.55939834-3.0273438-4.40673831 0-.96029126.2705865-1.81680938.8117676-2.56958007.5411811-.7527707 1.3183543-1.34073682 2.331543-1.76391602 1.0131886-.4231792 2.1504657-.63476562 3.4118652-.63476562 1.2695376 0 2.4007112.22989678 3.3935547.68969726s1.7639133 1.10880115 2.3132324 1.94702148c.5493192.83822034.8239746 1.79035926.8239746 2.85644532h-3.6621094c0-.81380615-.256345-1.44653095-.7690429-1.89819336-.5126979-.45166242-1.2329055-.67749024-2.1606445-.67749024-.8951868 0-1.5909806.1892071-2.0874024.56762696-.4964217.37841986-.7446289.87686865-.7446289 1.49536132 0 .57780237.2909313 1.06200977.8728027 1.45263672.5818714.39062696 1.4383896.75683423 2.5695801 1.09863282 2.0833438.62663073 3.6010695 1.40380395 4.5532227 2.33154294.9521532.927739 1.4282226 2.0833264 1.4282226 3.4667969 0 1.5380936-.5818626 2.7445432-1.7456054 3.6193848s-2.7302962 1.3122558-4.6997071 1.3122558c-1.3671943 0-2.612299-.2502416-3.7353515-.7507324s-1.9795707-1.1861122-2.5695801-2.0568848c-.5900095-.8707725-.8850098-1.879877-.8850098-3.0273437h3.6743164c0 1.9612728 1.1718633 2.9418945 3.515625 2.9418945.8707726 0 1.5502906-.1770002 2.0385742-.5310058.4882837-.3540057.7324219-.8483855.7324219-1.4831543z" id="el_BlUrfSS48Yf"/><path d="m15.5556641 75h-7.0556641v-27.1972656l-8.42285156 2.6123047v-5.7373047l14.72167966-5.2734375h.756836zm35.9130859 0h-24.3652344v-4.8339844l11.4990235-12.2558594c1.5787839-1.725269 2.7465782-3.2307878 3.5034179-4.5166015.7568398-1.2858137 1.1352539-2.5065047 1.1352539-3.6621094 0-1.5787839-.398759-2.8198197-1.196289-3.7231445-.7975301-.9033248-1.9368416-1.3549805-3.4179688-1.3549805-1.59506 0-2.8523717.5493109-3.7719726 1.6479492-.919601 1.0986383-1.3793946 2.5431226-1.3793946 4.3334961h-7.0800781c0-2.1647243.5167592-4.1422436 1.550293-5.9326172 1.0335338-1.7903735 2.4942939-3.1941681 4.3823242-4.2114257 1.8880303-1.0172577 4.0283083-1.5258789 6.4208984-1.5258789 3.6621277 0 6.5063376.8788974 8.5327149 2.6367187s3.0395508 4.2398928 3.0395508 7.4462891c0 1.7578213-.4557246 3.5481679-1.3671875 5.3710937s-2.4739473 3.946928-4.6875 6.3720703l-8.0810547 8.5205078h15.2832031zm4.9804688-3.4667969c0-1.1230525.3784141-2.0345017 1.1352539-2.734375.7568397-.6998733 1.7049096-1.0498047 2.8442382-1.0498047 1.1556048 0 2.1118127.3499314 2.8686524 1.0498047s1.1352539 1.6113225 1.1352539 2.734375c0 1.1067764-.3743452 2.0060187-1.1230469 2.6977539-.7487016.6917353-1.7089785 1.0375977-2.8808594 1.0375977-1.1556047 0-2.1077436-.3458624-2.8564453-1.0375977-.7487016-.6917352-1.1230468-1.5909775-1.1230468-2.6977539zm14.9169921-14.0136719 2.0507813-18.0664062h19.921875v5.8837891h-14.1357422l-.8789062 7.6416015c1.6764406-.8951867 3.4586494-1.3427734 5.3466796-1.3427734 3.3854336 0 6.0384019 1.0497942 7.9589844 3.149414 1.9205825 2.0996199 2.8808594 5.0374161 2.8808594 8.8134766 0 2.2949334-.4842074 4.3497631-1.4526367 6.1645508-.9684294 1.8147877-2.355948 3.2226512-4.1625977 4.2236328-1.8066496 1.0009816-3.9387898 1.5014648-6.3964844 1.5014648-2.1484482 0-4.1422434-.4353797-5.9814453-1.3061523s-3.2918241-2.0955325-4.3579101-3.6743164c-1.0660861-1.5787839-1.6316729-3.3772686-1.6967774-5.3955078h6.9824219c.1464851 1.4811272.6632443 2.6326456 1.550293 3.4545898s2.046705 1.2329102 3.4790039 1.2329102c1.59506 0 2.8238889-.5737247 3.6865234-1.7211914s1.2939453-2.7709856 1.2939453-4.8706055c0-2.0182392-.4964143-3.5644477-1.4892578-4.6386719-.9928435-1.0742241-2.400707-1.6113281-4.2236328-1.6113281-1.6764407 0-3.0354766.4394487-4.0771484 1.3183594l-.6835938.6347656zm52.0019531 17.4804688h-24.3652343v-4.8339844l11.4990233-12.2558594c1.578784-1.725269 2.746578-3.2307878 3.503418-4.5166015s1.135254-2.5065047 1.135254-3.6621094c0-1.5787839-.398759-2.8198197-1.196289-3.7231445s-1.936842-1.3549805-3.417969-1.3549805c-1.59506 0-2.852372.5493109-3.771972 1.6479492-.919601 1.0986383-1.379395 2.5431226-1.379395 4.3334961h-7.0800781c0-2.1647243.5167591-4.1422436 1.5502929-5.9326172 1.0335342-1.7903735 2.4942942-3.1941681 4.3823242-4.2114257 1.88803-1.0172577 4.028308-1.5258789 6.420899-1.5258789 3.662127 0 6.506337.8788974 8.532714 2.6367187 2.026378 1.7578213 3.039551 4.2398928 3.039551 7.4462891 0 1.7578213-.455724 3.5481679-1.367187 5.3710937s-2.473948 3.946928-4.6875 6.3720703l-8.081055 8.5205078h15.283203zm4.223633-28.7109375c0-2.1810005.708001-3.9510023 2.124023-5.3100586 1.416023-1.3590563 3.271473-2.0385742 5.566407-2.0385742 2.327485 0 4.199211.67138 5.615234 2.0141601 1.416023 1.3427802 2.124023 3.1616097 2.124023 5.456543v1.7578125c0 2.1972766-.708 3.9632095-2.124023 5.2978516s-3.271473 2.0019531-5.566406 2.0019531c-2.31121 0-4.178867-.67138-5.603028-2.0141602-1.42416-1.3427801-2.13623-3.1534716-2.13623-5.4321289zm4.6875 1.8798828c0 .9765674.280759 1.7618786.842285 2.355957.561526.5940785 1.29801.8911133 2.209473.8911133s1.635739-.3011037 2.172851-.9033203c.537112-.6022165.805664-1.4078725.805664-2.4169922v-1.8066406c0-.9765674-.268552-1.7659475-.805664-2.3681641-.537112-.6022165-1.277664-.9033203-2.221679-.9033203-.895187 0-1.619464.2970348-2.172852.8911133s-.830078 1.4200794-.830078 2.4780274zm12.304687 18.1152344c0-2.1972766.716139-3.9672785 2.148438-5.3100586 1.432299-1.3427802 3.287749-2.0141602 5.566406-2.0141602 2.31121 0 4.178867.6632421 5.603027 1.9897461 1.424161 1.3265041 2.136231 3.1534715 2.136231 5.4809571v1.7578125c0 2.1810005-.699863 3.9428643-2.099609 5.2856445-1.399747 1.3427801-3.263335 2.0141601-5.590821 2.0141601-2.343761 0-4.223625-.6754489-5.639648-2.0263671-1.416023-1.3509183-2.124024-3.1412649-2.124024-5.3710938zm4.6875 1.9042969c0 .8951867.292966 1.660153.878907 2.2949218.58594.6347688 1.318355.9521485 2.197265.9521485 1.985687 0 2.978516-1.0986219 2.978516-3.2958985v-1.8554687c0-.9765674-.27669-1.7618786-.830078-2.355957-.553388-.5940785-1.285803-.8911133-2.197266-.8911133s-1.643877.2970348-2.197266.8911133c-.553388.5940784-.830078 1.4038034-.830078 2.4291992zm-12.548828 4.1503906-3.442383-1.8554688 17.358399-27.7832031 3.442383 1.8554688z" id="el_9iCGJ1eesXn"/></g><g id="el_Cgr_poGcWzL"><path d="m24.6640625 29h-5.859375l-11.40625-18.7109375v18.7109375h-5.859375v-28.4375h5.859375l11.4257813 18.75v-18.75h5.8398437zm28.4765625-13.5742187c0 2.7994931-.4947867 5.2538957-1.484375 7.3632812s-2.4055897 3.7369734-4.2480469 4.8828125c-1.8424571 1.1458391-3.9550662 1.71875-6.3378906 1.71875-2.3567826 0-4.4596262-.5664006-6.3085937-1.6992188-1.8489676-1.1328181-3.281245-2.7506405-4.296875-4.8535156-1.0156301-2.1028751-1.5299479-4.5214707-1.5429688-7.2558593v-1.4062501c0-2.7994931.5045522-5.26366118 1.5136719-7.39257808 1.0091196-2.12891689 2.4348866-3.76301513 4.2773437-4.90234374 1.8424572-1.13932862 3.9485559-1.70898438 6.3183594-1.70898438s4.4759022.56965576 6.3183594 1.70898438c1.8424571 1.13932861 3.2682241 2.77342685 4.2773437 4.90234374 1.0091197 2.1289169 1.5136719 4.58657458 1.5136719 7.37304688zm-5.9375-1.2890625c0-2.9817858-.5338488-5.24738814-1.6015625-6.79687505s-2.5911359-2.32421875-4.5703125-2.32421875c-1.9661557 0-3.4830676.76496631-4.5507812 2.29492188-1.0677137 1.52995556-1.6080729 3.77277172-1.6210938 6.72851562v1.3867187c0 2.9036604.5338488 5.156242 1.6015625 6.7578126 1.0677137 1.6015705 2.6041566 2.4023437 4.609375 2.4023437 1.9661557 0 3.4765572-.7714767 4.53125-2.3144531 1.0546928-1.5429765 1.5885416-3.792303 1.6015625-6.7480469z" id="el_RDLxMjuct4t"/><path d="m37.9375 55.2421875c0 2.7604305-.6900973 5.2083227-2.0703125 7.34375s-3.2812379 3.8411395-5.703125 5.1171875c2.7604305 1.3281316 4.9479086 3.1575404 6.5625 5.4882812 1.6145914 2.3307409 2.421875 5.0715989 2.421875 8.2226563 0 5.0521086-1.7187328 9.0429541-5.15625 11.9726563-3.4375172 2.9297021-8.1119496 4.3945312-14.0234375 4.3945312s-10.59894102-1.4713395-14.0625-4.4140625-5.1953125-6.9270582-5.1953125-11.953125c0-3.1510574.80728359-5.8984258 2.421875-8.2421875s3.78904883-4.1666602 6.5234375-5.46875c-2.42188711-1.276048-4.31639941-2.9817602-5.68359375-5.1171875s-2.05078125-4.5833195-2.05078125-7.34375c0-4.8437742 1.61456719-8.7044127 4.84375-11.5820313 3.22918281-2.8776185 7.6171598-4.3164062 13.1640625-4.3164062 5.5208609 0 9.9023275 1.425767 13.1445313 4.2773438 3.2422037 2.8515767 4.8632812 6.7252359 4.8632812 11.6210937zm-10.1171875 25.3515625c0-2.4739707-.7161387-4.4531176-2.1484375-5.9375s-3.3593629-2.2265625-5.78125-2.2265625c-2.3958453 0-4.3098887.7356697-5.7421875 2.2070313-1.4322988 1.4713615-2.1484375 3.4570187-2.1484375 5.9570312 0 2.4218871.703118 4.3749926 2.109375 5.859375s3.3593625 2.2265625 5.859375 2.2265625c2.4479289 0 4.3684826-.7161387 5.7617188-2.1484375 1.3932361-1.4322988 2.0898437-3.4114457 2.0898437-5.9375zm-1.171875-24.8046875c0-2.2135527-.5859316-3.9908787-1.7578125-5.3320313-1.1718809-1.3411525-2.8255102-2.0117187-4.9609375-2.0117187-2.1093855 0-3.7499941.6510352-4.921875 1.953125s-1.7578125 3.0989469-1.7578125 5.390625c0 2.2656363.5859316 4.0885348 1.7578125 5.46875s2.8255102 2.0703125 4.9609375 2.0703125 3.7825463-.6900973 4.9414062-2.0703125c1.15886-1.3802152 1.7382813-3.2031137 1.7382813-5.46875zm58.7890625-9.3359375-21.9921875 50.546875h-11.9140625l22.03125-47.734375h-28.28125v-9.140625h40.15625zm8.28125 45c0-1.796884.6054627-3.2552027 1.8164062-4.375 1.2109436-1.1197973 2.7278555-1.6796875 4.5507818-1.6796875 1.848967 0 3.3789.5598902 4.589843 1.6796875 1.210944 1.1197973 1.816407 2.578116 1.816407 4.375 0 1.7708422-.598953 3.2096299-1.796876 4.3164062-1.197922 1.1067764-2.734365 1.6601563-4.609374 1.6601563-1.8489681 0-3.3723903-.5533799-4.570313-1.6601563-1.1979227-1.1067763-1.796875-2.545564-1.796875-4.3164062zm55.585938-15.859375h6.445312v9.1015625h-6.445312v12.3046875h-11.289063v-12.3046875h-23.320313l-.507812-7.109375 23.710938-37.4609375h11.40625zm-23.867188 0h12.578125v-20.078125l-.742187 1.2890625zm73.4375-20.3515625c0 2.7604305-.690097 5.2083227-2.070312 7.34375-1.380216 2.1354273-3.281238 3.8411395-5.703126 5.1171875 2.760431 1.3281316 4.947909 3.1575404 6.5625 5.4882812 1.614592 2.3307409 2.421876 5.0715989 2.421876 8.2226563 0 5.0521086-1.718733 9.0429541-5.15625 11.9726563-3.437518 2.9297021-8.11195 4.3945312-14.023438 4.3945312s-10.598941-1.4713395-14.0625-4.4140625-5.195312-6.9270582-5.195312-11.953125c0-3.1510574.807283-5.8984258 2.421874-8.2421875 1.614592-2.3437617 3.789049-4.1666602 6.523438-5.46875-2.421887-1.276048-4.316399-2.9817602-5.683594-5.1171875-1.367194-2.1354273-2.050781-4.5833195-2.050781-7.34375 0-4.8437742 1.614567-8.7044127 4.84375-11.5820313 3.229183-2.8776185 7.61716-4.3164062 13.164063-4.3164062 5.52086 0 9.902327 1.425767 13.144531 4.2773438 3.242203 2.8515767 4.863281 6.7252359 4.863281 11.6210937zm-10.117188 25.3515625c0-2.4739707-.716138-4.4531176-2.148437-5.9375s-3.359363-2.2265625-5.78125-2.2265625c-2.395845 0-4.309889.7356697-5.742187 2.2070313-1.432299 1.4713615-2.148438 3.4570187-2.148438 5.9570312 0 2.4218871.703118 4.3749926 2.109375 5.859375s3.359363 2.2265625 5.859375 2.2265625c2.447929 0 4.368483-.7161387 5.761719-2.1484375s2.089843-3.4114457 2.089843-5.9375zm-1.171874-24.8046875c0-2.2135527-.585932-3.9908787-1.757813-5.3320313-1.171881-1.3411525-2.82551-2.0117187-4.960937-2.0117187-2.109386 0-3.749995.6510352-4.921876 1.953125-1.17188 1.3020898-1.757812 3.0989469-1.757812 5.390625 0 2.2656363.585932 4.0885348 1.757812 5.46875 1.171881 1.3802152 2.825511 2.0703125 4.960938 2.0703125s3.782546-.6900973 4.941406-2.0703125 1.738282-3.2031137 1.738282-5.46875zm19.960937-4.7265625c0-3.4896008 1.132801-6.3216037 3.398437-8.4960938 2.265637-2.17449 5.234357-3.2617187 8.90625-3.2617187 3.723977 0 6.718739 1.074208 8.984376 3.2226563 2.265636 2.1484482 3.398437 5.0585753 3.398437 8.7304687v2.8125c0 3.5156426-1.132801 6.3411352-3.398437 8.4765625-2.265637 2.1354273-5.234357 3.203125-8.90625 3.203125-3.697936 0-6.686187-1.074208-8.964844-3.2226562-2.278657-2.1484483-3.417969-5.0455547-3.417969-8.6914063zm7.5 3.0078125c0 1.5625078.449214 2.8190057 1.347656 3.7695313.898442.9505255 2.076816 1.4257812 3.535157 1.4257812 1.45834 0 2.617183-.481766 3.476562-1.4453125s1.289062-2.2525961 1.289062-3.8671875v-2.890625c0-1.5625078-.429683-2.825516-1.289062-3.7890625s-2.044263-1.4453125-3.554688-1.4453125c-1.432298 0-2.591141.4752557-3.476562 1.4257812-.885421.9505256-1.328125 2.272127-1.328125 3.9648438zm19.6875 28.984375c0-3.5156426 1.145822-6.3476455 3.4375-8.4960937 2.291678-2.1484483 5.260398-3.2226563 8.90625-3.2226563 3.697935 0 6.686187 1.0611873 8.964844 3.1835937 2.278657 2.1224065 3.417968 5.0455543 3.417968 8.7695313v2.8125c0 3.4896008-1.11978 6.308583-3.359375 8.4570313-2.239594 2.1484482-5.221335 3.2226562-8.945312 3.2226562-3.750019 0-6.757801-1.0807184-9.023438-3.2421875-2.265636-2.1614691-3.398437-5.0260238-3.398437-8.59375zm7.5 3.046875c0 1.4322988.468745 2.6562449 1.40625 3.671875s2.109368 1.5234375 3.515625 1.5234375c3.177099 0 4.765625-1.7577949 4.765625-5.2734375v-2.96875c0-1.5625078-.442704-2.8190057-1.328125-3.7695313-.885421-.9505255-2.057284-1.4257812-3.515625-1.4257812s-2.630204.4752557-3.515625 1.4257812c-.885421.9505256-1.328125 2.2460856-1.328125 3.8867188zm-20.078125 6.640625-5.507813-2.96875 27.773438-44.453125 5.507812 2.96875z" id="el_GAjvuuQTo70"/></g><path d="m44.2421875 112.445312.546875 3.75.8007813-3.378906 5.625-19.8437498h3.1640624l5.4882813 19.8437498.78125 3.4375.6054687-3.828125 4.4140626-19.4531248h3.7695312l-6.8945313 28.4374998h-3.4179687l-5.859375-20.722656-.4492188-2.1679688-.4492187 2.1679688-6.0742187 20.722656h-3.4179688l-6.875-28.4374998h3.75zm41.8359375 8.964844c-.2083344-.416668-.3776035-1.158849-.5078125-2.226562-1.6796959 1.7448-3.6848842 2.617187-6.015625 2.617187-2.0833438 0-3.792311-.589187-5.1269531-1.767578s-2.0019532-2.672517-2.0019532-4.482422c0-2.200532.8365802-3.909499 2.5097657-5.126953 1.6731854-1.217454 4.0266775-1.826172 7.0605469-1.826172h3.515625v-1.660156c0-1.263027-.3776004-2.268876-1.1328126-3.017578-.7552121-.748702-1.8684822-1.123047-3.3398437-1.123047-1.2890689 0-2.3697873.325518-3.2421875.976563-.8724002.651044-1.3085938 1.438797-1.3085938 2.363281h-3.6328124c0-1.054693.3743452-2.073563 1.1230468-3.056641.7487017-.983078 1.7643165-1.761065 3.046875-2.333984 1.2825585-.57292 2.6920496-.8593752 4.2285156-.8593752 2.4349081 0 4.3424411.6087182 5.7226563 1.8261722s2.0963539 2.893869 2.1484375 5.029297v9.726562c0 1.940114.2473934 3.483067.7421875 4.628906v.3125zm-5.9960938-2.753906c1.1328182 0 2.2070262-.292966 3.2226563-.878906 1.0156301-.585941 1.7512998-1.347652 2.2070313-2.285156v-4.335938h-2.8320313c-4.4271055 0-6.640625 1.29556-6.640625 3.886719 0 1.132818.3776004 2.018226 1.1328125 2.65625s1.7252545.957031 2.9101562.957031zm27.0117188-2.851562c0-.976568-.367835-1.735024-1.103516-2.275391-.73568-.540367-2.01822-1.005858-3.847656-1.396485-1.829436-.390626-3.2812445-.859372-4.3554686-1.40625-1.0742241-.546877-1.868487-1.197912-2.3828125-1.953124-.5143255-.755213-.7714844-1.653641-.7714844-2.695313 0-1.731779.7324146-3.196609 2.1972656-4.394531 1.4648511-1.197923 3.3365769-1.7968752 5.6152339-1.7968752 2.395846 0 4.339186.6184832 5.830079 1.8554692 1.490892 1.236985 2.236328 2.819 2.236328 4.746093h-3.632813c0-.989588-.419917-1.842444-1.259765-2.558593-.839848-.71615-1.89778-1.074219-3.173829-1.074219-1.31511 0-2.343746.286455-3.085937.859375-.7421912.572919-1.1132812 1.32161-1.1132812 2.246094 0 .8724.3450486 1.529945 1.0351562 1.972656.6901076.44271 1.93684.865883 3.740234 1.269531 1.803395.403648 3.264969.885414 4.384766 1.445313 1.119797.559898 1.949867 1.23372 2.490234 2.021484.540368.787764.810547 1.748041.810547 2.880859 0 1.888031-.755201 3.401687-2.265625 4.541016-1.510424 1.139328-3.47004 1.708984-5.878906 1.708984-1.692717 0-3.1900977-.299476-4.4921875-.898437-1.3020898-.598962-2.3209599-1.435542-3.0566406-2.509766-.7356808-1.074224-1.1035157-2.236322-1.1035157-3.486328h3.6132813c.0651045 1.210944.5501257 2.17122 1.4550781 2.880859.9049525.709639 2.0996024 1.064453 3.5839844 1.064453 1.367194 0 2.464189-.276689 3.291016-.830078.826827-.553388 1.240234-1.292313 1.240234-2.216796zm34.082031-.253907h-10.273437l-1.953125 5.859375h-6.230469l10.585938-28.4374998h5.429687l10.644531 28.4374998h-6.230468zm-8.691406-4.746093h7.109375l-3.574219-10.644532zm31.054687-5.234376c-.768233-.104167-1.445309-.15625-2.03125-.15625-2.135427 0-3.535152.72265-4.199218 2.167969v13.828125h-5.644532v-21.132812h5.332032l.15625 2.519531c1.132818-1.940114 2.701813-2.9101562 4.707031-2.9101562.625003 0 1.210935.0846345 1.757813.2539062zm11.503907 11.679688c1.041672 0 1.888017-.286455 2.539062-.859375s.989583-1.334631 1.015625-2.285156h5.292969c-.013021 1.432299-.403642 2.744134-1.171875 3.935547-.768233 1.191412-1.819655 2.115882-3.154297 2.773437s-2.809237.986328-4.423828.986328c-3.020848 0-5.403637-.960277-7.148437-2.880859-1.744801-1.920583-2.617188-4.573551-2.617188-7.958984v-.371094c0-3.255225.865877-5.852855 2.597656-7.792969 1.73178-1.940114 4.108058-2.9101562 7.128906-2.9101562 2.643243 0 4.762362.7519452 6.357422 2.2558592s2.405599 3.505847 2.431641 6.00586h-5.292969c-.026042-1.093756-.36458-1.982419-1.015625-2.666016s-1.510411-1.025391-2.578125-1.025391c-1.31511 0-2.307939.478511-2.978515 1.435547-.670577.957036-1.00586 2.509755-1.00586 4.658203v.585938c0 2.17449.332028 3.736974.996094 4.6875.664066.950525 1.67317 1.425781 3.027344 1.425781zm17.578125-14.667969c1.497403-1.796884 3.378895-2.6953122 5.644531-2.6953122 4.583356 0 6.907552 2.6627342 6.972656 7.9882812v13.535156h-5.644531v-13.378906c0-1.210944-.260414-2.106117-.78125-2.685547s-1.386713-.869141-2.597656-.869141c-1.653654 0-2.851559.638015-3.59375 1.914063v15.019531h-5.644532v-29.9999998h5.644532zm22.832031 18.828125h-5.664063v-21.132812h5.664063zm-5.996094-26.6015622c0-.8463584.283201-1.5429661.84961-2.0898438s1.337885-.8203125 2.314453-.8203125c.963546 0 1.731768.2734348 2.304687.8203125.57292.5468777.859375 1.2434854.859375 2.0898438 0 .8593792-.28971 1.5624972-.86914 2.109375-.57943.5468777-1.344397.8203124-2.294922.8203124-.950526 0-1.715492-.2734347-2.294922-.8203124-.57943-.5468778-.869141-1.2499958-.869141-2.109375zm18.554688 19.7070312 3.925781-14.238281h5.898437l-7.128906 21.132812h-5.390625l-7.128906-21.132812h5.898437zm18.261718 6.894531h-5.664062v-21.132812h5.664062zm-5.996093-26.6015622c0-.8463584.2832-1.5429661.849609-2.0898438s1.337886-.8203125 2.314453-.8203125c.963547 0 1.731768.2734348 2.304688.8203125.572919.5468777.859375 1.2434854.859375 2.0898438 0 .8593792-.289711 1.5624972-.869141 2.109375-.57943.5468777-1.344396.8203124-2.294922.8203124-.950525 0-1.715492-.2734347-2.294922-.8203124-.57943-.5468778-.86914-1.2499958-.86914-2.109375zm15.839844 5.4687502.175781 2.441406c1.510424-1.88803 3.535143-2.8320312 6.074219-2.8320312 2.239594 0 3.906244.6575452 5 1.9726562 1.093755 1.315111 1.653645 3.281237 1.679687 5.898437v13.652344h-5.644531v-13.515625c0-1.197922-.260414-2.067054-.78125-2.607422-.520836-.540367-1.386713-.810547-2.597656-.810547-1.58855 0-2.779944.677077-3.574219 2.03125v14.902344h-5.644531v-21.132812zm16.386718 10.410156c0-3.242204.771477-5.852855 2.314453-7.832031 1.542977-1.979177 3.623034-2.9687502 6.240235-2.9687502 2.31772 0 4.121087.7942632 5.410156 2.3828122l.234375-1.992187h5.117187v20.429687c0 1.848968-.419917 3.457025-1.259765 4.824219s-2.021477 2.408851-3.544922 3.125-3.307281 1.074219-5.351563 1.074219c-1.549486 0-3.059888-.309242-4.53125-.927735-1.471361-.618492-2.584631-1.41601-3.339843-2.392578l2.5-3.4375c1.406257 1.575529 3.111969 2.363282 5.117187 2.363282 1.497404 0 2.662757-.400387 3.496094-1.201172.833338-.800786 1.25-1.936842 1.25-3.408204v-1.132812c-1.30209 1.471362-3.014312 2.207031-5.136719 2.207031-2.539075 0-4.593091-.992828-6.162109-2.978515s-2.353516-4.619125-2.353516-7.900391zm5.644532.410156c0 1.914072.38411 3.414708 1.152343 4.501953s1.82291 1.63086 3.164063 1.63086c1.718758 0 2.949215-.644525 3.691406-1.933594v-8.886719c-.755212-1.289069-1.972648-1.933594-3.652344-1.933594-1.354173 0-2.418616.55338-3.193359 1.660157-.774744 1.106776-1.162109 2.760405-1.162109 4.960937zm37.246093 10.703125c-2.864597 0-5.195303-.940746-6.992187-2.822265-1.796884-1.88152-2.695313-4.397771-2.695313-7.548828v-.664063c0-2.096365.400387-3.968091 1.201172-5.615234.800785-1.647144 1.920566-2.936194 3.359375-3.867188s2.998039-1.3964842 4.677734-1.3964842c2.74741 0 4.882805.9049392 6.40625 2.7148432 1.523446 1.809905 2.285157 4.401025 2.285157 7.773438v1.503906h-14.316407c.052084 2.083344.660802 3.76627 1.826172 5.048828 1.165371 1.282559 2.646476 1.923828 4.44336 1.923828 1.276048 0 2.356766-.260414 3.242187-.78125.885421-.520835 1.660153-1.210933 2.324219-2.070312l2.207031 1.71875c-1.770842 2.721368-4.427065 4.082031-7.96875 4.082031zm-.449218-18.945312c-1.458341 0-2.682287.530593-3.671875 1.591797-.989589 1.061203-1.601562 2.548818-1.835938 4.46289h10.585938v-.273437c-.104168-1.835947-.598954-3.258459-1.484375-4.267578-.885422-1.00912-2.083326-1.513672-3.59375-1.513672zm25.917968 18.554687c-.208334-.416668-.377603-1.158849-.507812-2.226562-1.679696 1.7448-3.684884 2.617187-6.015625 2.617187-2.083344 0-3.792311-.589187-5.126953-1.767578s-2.001953-2.672517-2.001953-4.482422c0-2.200532.83658-3.909499 2.509765-5.126953 1.673186-1.217454 4.026678-1.826172 7.060547-1.826172h3.515625v-1.660156c0-1.263027-.3776-2.268876-1.132812-3.017578-.755213-.748702-1.868483-1.123047-3.339844-1.123047-1.289069 0-2.369788.325518-3.242188.976563-.8724.651044-1.308593 1.438797-1.308593 2.363281h-3.632813c0-1.054693.374345-2.073563 1.123047-3.056641s1.764316-1.761065 3.046875-2.333984c1.282558-.57292 2.692049-.8593752 4.228516-.8593752 2.434908 0 4.342441.6087182 5.722656 1.8261722s2.096354 2.893869 2.148437 5.029297v9.726562c0 1.940114.247394 3.483067.742188 4.628906v.3125zm-5.996093-2.753906c1.132818 0 2.207026-.292966 3.222656-.878906 1.01563-.585941 1.7513-1.347652 2.207031-2.285156v-4.335938h-2.832031c-4.427106 0-6.640625 1.29556-6.640625 3.886719 0 1.132818.3776 2.018226 1.132812 2.65625s1.725255.957031 2.910157.957031zm27.011718-2.851562c0-.976568-.367835-1.735024-1.103515-2.275391-.735681-.540367-2.01822-1.005858-3.847657-1.396485-1.829436-.390626-3.281244-.859372-4.355468-1.40625-1.074224-.546877-1.868487-1.197912-2.382813-1.953124-.514325-.755213-.771484-1.653641-.771484-2.695313 0-1.731779.732414-3.196609 2.197265-4.394531 1.464851-1.197923 3.336578-1.7968752 5.615235-1.7968752 2.395845 0 4.339185.6184832 5.830078 1.8554692 1.490893 1.236985 2.236328 2.819 2.236328 4.746093h-3.632812c0-.989588-.419918-1.842444-1.259766-2.558593-.839848-.71615-1.89778-1.074219-3.173828-1.074219-1.315111 0-2.343747.286455-3.085938.859375-.742191.572919-1.113281 1.32161-1.113281 2.246094 0 .8724.345049 1.529945 1.035156 1.972656.690108.44271 1.93684.865883 3.740235 1.269531 1.803394.403648 3.264968.885414 4.384765 1.445313 1.119798.559898 1.949867 1.23372 2.490235 2.021484.540367.787764.810547 1.748041.810547 2.880859 0 1.888031-.755201 3.401687-2.265625 4.541016-1.510425 1.139328-3.470041 1.708984-5.878907 1.708984-1.692717 0-3.190097-.299476-4.492187-.898437-1.30209-.598962-2.32096-1.435542-3.056641-2.509766s-1.103515-2.236322-1.103515-3.486328h3.613281c.065104 1.210944.550125 2.17122 1.455078 2.880859.904952.709639 2.099602 1.064453 3.583984 1.064453 1.367195 0 2.464189-.276689 3.291016-.830078.826827-.553388 1.240234-1.292313 1.240234-2.216796zm15.234375.3125 4.921875-15.839844h3.867188l-8.496094 24.394531c-1.315111 3.515643-3.404934 5.273437-6.269531 5.273437l-.683594-.058593-1.347656-.253907v-2.929687l.976562.078125c1.223965 0 2.177731-.247393 2.861328-.742188.683598-.494794 1.246743-1.399733 1.689453-2.714843l.800782-2.148438-7.539063-20.898437h3.945313zm26.816406-20.9570318v5.1171878h3.945313v2.792968h-3.945313v13.105469c0 .846359.17578 1.481118.527344 1.904297.351565.423179.950517.634766 1.796875.634766.416669 0 .98958-.078124 1.71875-.234375v2.929687c-.950525.260418-1.874995.390625-2.773437.390625-1.614592 0-2.832027-.488276-3.652344-1.464843-.820317-.976568-1.230469-2.363273-1.230469-4.160157v-13.105469h-3.847656v-2.792968h3.847656v-5.1171878zm7.207032 15.4882818c0-2.070323.406897-3.932284 1.220703-5.585938s1.946607-2.929683 3.398437-3.828125c1.451831-.898442 3.108715-1.3476562 4.970704-1.3476562 2.877618 0 5.205069.9960842 6.982421 2.9882812 1.777353 1.992197 2.666016 4.641911 2.666016 7.949219v.253906c0 2.057302-.393876 3.902987-1.181641 5.537109-.787764 1.634123-1.914055 2.906897-3.378906 3.81836s-3.147777 1.367187-5.048828 1.367187c-2.864598 0-5.185538-.996084-6.962891-2.988281-1.777352-1.992197-2.666015-4.62889-2.666015-7.910156zm3.632812.429687c0 2.343762.543615 4.225253 1.63086 5.644531s2.542308 2.128906 4.365234 2.128906c1.835947 0 3.294265-.719393 4.375-2.158203 1.080735-1.438809 1.621094-3.453763 1.621094-6.044921 0-2.31772-.550125-4.195957-1.650391-5.634766s-2.56184-2.158203-4.384765-2.158203c-1.783864 0-3.222651.709628-4.316407 2.128906-1.093755 1.419278-1.640625 3.450508-1.640625 6.09375zm31.25 10.332031v-18.339844h-3.339843v-2.792968h3.339843v-1.7968752c0-2.3567827.673822-4.1927018 2.021485-5.5078126 1.347663-1.3151107 3.25194-1.9726562 5.71289-1.9726562 1.458341 0 3.30077.3971314 5.527344 1.1914062l-.605469 3.046875c-1.627612-.6510449-3.177076-.9765624-4.648437-.9765624-1.549487 0-2.666012.3483038-3.34961 1.0449218-.683597.6966181-1.02539 1.7415295-1.02539 3.1347656v1.8359378h4.316406v2.792968h-4.316406v18.339844zm15.058594 0h-3.632812v-21.132812h3.632812zm9.296875-21.132812.117188 2.65625c1.614591-2.03126 3.723945-3.0468752 6.328125-3.0468752 4.466168 0 6.718749 2.5195062 6.757812 7.5585932v13.964844h-3.613281v-13.984375c-.013021-1.523445-.361325-2.649736-1.044922-3.378906s-1.74804-1.09375-3.193359-1.09375c-1.171881 0-2.200517.312497-3.085938.9375s-1.575518 1.445307-2.070312 2.460937v15.058594h-3.613282v-21.132812zm17.773438 10.390625c0-3.242204.768221-5.8496 2.304687-7.822266s3.548165-2.9589842 6.035156-2.9589842c2.473971 0 4.433587.8463452 5.878907 2.5390622v-11.0156248h3.613281v29.9999998h-3.320313l-.175781-2.265625c-1.44532 1.770842-3.457018 2.65625-6.035156 2.65625-2.447929 0-4.443352-1.002594-5.986328-3.007812-1.542977-2.005219-2.314453-4.62238-2.314453-7.851563zm3.613281.410156c0 2.395845.494786 4.270827 1.484375 5.625.989588 1.354173 2.356762 2.03125 4.101562 2.03125 2.291678 0 3.964839-1.028636 5.019531-3.085937v-9.707032c-1.080734-1.992197-2.740874-2.988281-4.980468-2.988281-1.770842 0-3.151037.683587-4.140625 2.050781-.989589 1.367195-1.484375 3.391914-1.484375 6.074219zm24.0625 2.324219c.026042-1.549487.201821-2.773433.527343-3.671875.325523-.898442.989579-1.894526 1.992188-2.988281l2.558594-2.636719c1.093755-1.236986 1.640625-2.565097 1.640625-3.984375 0-1.3671946-.35807-2.4381474-1.074219-3.2128909-.716149-.7747434-1.757806-1.1621093-3.125-1.1621093-1.328132 0-2.395829.3515589-3.203125 1.0546874-.807296.7031286-1.210937 1.6471295-1.210937 2.8320313h-3.613282c.026042-2.1093855.777988-3.8118425 2.25586-5.1074219s3.40168-1.9433594 5.771484-1.9433594c2.46095 0 4.378248.6608007 5.751953 1.9824219s2.060547 3.1347541 2.060547 5.4394529c0 2.278657-1.054677 4.524729-3.164062 6.738282l-2.128907 2.109374c-.950525 1.054693-1.425781 2.571605-1.425781 4.550782zm-.15625 6.191406c0-.58594.179034-1.077472.537109-1.474609.358075-.397138.888668-.595703 1.591797-.595703s1.236977.198565 1.601563.595703c.364585.397137.546874.888669.546874 1.474609s-.182289 1.070962-.546874 1.455078c-.364586.384117-.898434.576172-1.601563.576172s-1.233722-.192055-1.591797-.576172c-.358075-.384116-.537109-.869138-.537109-1.455078z" id="el_Vvvy-_hjvOz"/><path d="m41.5332031 60.7949219h-2.3339843v5.2050781h-2.9296876v-14.21875h5.2832032c1.6796959 0 2.9752558.3743452 3.8867187 1.1230469.9114629.7487016 1.3671875 1.8066338 1.3671875 3.1738281 0 .9700569-.2099588 1.7789681-.6298828 2.4267578s-1.0563108 1.1637351-1.9091797 1.5478516l3.0761719 5.8105468v.1367188h-3.1445312zm-2.3339843-2.3730469h2.3632812c.7356808 0 1.3053365-.1871726 1.7089844-.5615234.4036478-.3743509.6054687-.8902962.6054687-1.5478516 0-.6705763-.1904278-1.1979147-.571289-1.5820312-.3808613-.3841166-.9651654-.5761719-1.7529297-.5761719h-2.3535156zm18.3886718 1.4160156h-5.625v3.8085938h6.6015625v2.3535156h-9.53125v-14.21875h9.5117188v2.3730469h-6.5820313v3.3886719h5.625zm10.0683594 2.4316406c0-.5533881-.1953105-.9781886-.5859375-1.274414-.390627-.2962255-1.0937449-.6087223-2.109375-.9375s-1.8196585-.6526677-2.4121094-.9716797c-1.6145914-.8724002-2.421875-2.0475187-2.421875-3.5253906 0-.768233.2164692-1.4534475.6494141-2.0556641.4329449-.6022165 1.0546834-1.0725894 1.8652344-1.4111328.8105509-.3385434 1.7203725-.5078125 2.7294922-.5078125 1.01563 0 1.9205689.1839174 2.7148437.5517578s1.4111306.8870409 1.8505859 1.5576172c.4394554.6705763.6591797 1.4322874.6591797 2.2851563h-2.9296875c0-.651045-.205076-1.1572248-.6152344-1.5185547-.4101583-.36133-.9863244-.5419922-1.7285156-.5419922-.7161494 0-1.2727844.1513656-1.6699218.4541015-.3971375.3027359-.5957032.701495-.5957032 1.1962891 0 .4622419.2327451.8496078.6982422 1.1621094.4654971.3125015 1.1507116.6054674 2.0556641.8789062 1.666675.5013046 2.8808555 1.1230432 3.6425781 1.8652344s1.1425781 1.6666611 1.1425781 2.7734375c0 1.2304749-.4654901 2.1956345-1.3964843 2.8955078-.9309943.6998733-2.184237 1.0498047-3.7597657 1.0498047-1.0937554 0-2.0898392-.2001933-2.9882812-.6005859-.898442-.4003927-1.5836565-.9488898-2.0556641-1.6455078-.4720076-.6966181-.7080078-1.5039017-.7080078-2.421875h2.9394531c0 1.5690182.9374907 2.3535156 2.8125 2.3535156.6966181 0 1.2402324-.1416002 1.6308594-.4248047.390627-.2832046.5859375-.6787084.5859375-1.1865235zm15.6835938-10.4882812v9.3652344c0 1.5559973-.4866488 2.7864538-1.459961 3.6914062-.9733121.9049525-2.3030515 1.3574219-3.9892578 1.3574219-1.6601646 0-2.9785107-.4394487-3.9550781-1.3183594-.9765674-.8789106-1.4746093-2.0865808-1.4941407-3.6230469v-9.4726562h2.9296876v9.3847656c0 .9309943.2229795 1.6096984.6689453 2.0361328.4459657.4264345 1.0628215.6396485 1.8505859.6396485 1.6471437 0 2.4837238-.8658768 2.5097656-2.5976563v-9.4628906zm5.3320312 11.8652344h6.2207031v2.3535156h-9.1503906v-14.21875h2.9296875zm18.603516-9.4921875h-4.355469v11.8457031h-2.9296876v-11.8457031h-4.296875v-2.3730469h11.5820316zm9.042968 8.1152343c0-.5533881-.19531-.9781886-.585937-1.274414-.390627-.2962255-1.093745-.6087223-2.109375-.9375s-1.819659-.6526677-2.412109-.9716797c-1.614592-.8724002-2.421876-2.0475187-2.421876-3.5253906 0-.768233.21647-1.4534475.649415-2.0556641.432944-.6022165 1.054683-1.0725894 1.865234-1.4111328s1.720372-.5078125 2.729492-.5078125c1.01563 0 1.920569.1839174 2.714844.5517578s1.41113.8870409 1.850586 1.5576172c.439455.6705763.659179 1.4322874.659179 2.2851563h-2.929687c0-.651045-.205076-1.1572248-.615234-1.5185547-.410159-.36133-.986325-.5419922-1.728516-.5419922-.716149 0-1.272784.1513656-1.669922.4541015-.397137.3027359-.595703.701495-.595703 1.1962891 0 .4622419.232745.8496078.698242 1.1621094.465497.3125015 1.150712.6054674 2.055664.8789062 1.666675.5013046 2.880856 1.1230432 3.642578 1.8652344.761723.7421912 1.142578 1.6666611 1.142578 2.7734375 0 1.2304749-.46549 2.1956345-1.396484 2.8955078s-2.184237 1.0498047-3.759766 1.0498047c-1.093755 0-2.089839-.2001933-2.988281-.6005859-.898442-.4003927-1.583656-.9488898-2.055664-1.6455078-.472007-.6966181-.708008-1.5039017-.708008-2.421875h2.939453c0 1.5690182.937491 2.3535156 2.8125 2.3535156.696619 0 1.240233-.1416002 1.63086-.4248047.390627-.2832046.585937-.6787084.585937-1.1865235z" id="el_uPY-EjHSWQd"/></g><g id="el_UOo0uFviSSO_an_P2_aG0U2g" data-animator-group="true" data-animator-type="0"><g fill-rule="nonzero" filter="url(#n)" id="el_UOo0uFviSSO"><path d="m13 11.8493714-12.99135785-11.8493714-.00864215 17.5060908 3.94227919-3.7415825 2.31542263 5.2354917 3.61245586-1.5718758-2.31542263-5.2354918z" id="el_u4LdcVagrA6"/></g></g></g></svg>